<svg xmlns="http://www.w3.org/2000/svg" width="64" height="64" enable-background="new 0 0 64 64" viewBox="0 0 64 64"><pattern id="a" width="23.936" height="23.881" y="-420" overflow="visible" patternUnits="userSpaceOnUse" viewBox="0 -23.881 23.936 23.881"><polygon fill="none" points="0 0 23.936 0 23.936 -23.881 0 -23.881"/><polygon fill="#78BFE8" points="23.936 0 0 0 0 -23.881 23.936 -23.881"/></pattern><pattern id="b" width="23.936" height="23.881" y="-420" overflow="visible" patternUnits="userSpaceOnUse" viewBox="0 -23.881 23.936 23.881"><polygon fill="none" points="0 0 23.936 0 23.936 -23.881 0 -23.881"/><polygon fill="#75BBA7" points="23.936 0 0 0 0 -23.881 23.936 -23.881"/></pattern><pattern id="c" width="23.936" height="23.881" y="-420" overflow="visible" patternUnits="userSpaceOnUse" viewBox="0 -23.881 23.936 23.881"><polygon fill="none" points="0 0 23.936 0 23.936 -23.881 0 -23.881"/><polygon fill="#EF6183" points="23.936 0 0 0 0 -23.881 23.936 -23.881"/></pattern><path fill="url(#a)" d="M63.563,60.924c0.003-0.033,0.021-0.061,0.021-0.094c0-0.27-0.12-0.54-0.32-0.73
		l-0.08-0.08c-0.007-0.004-0.014-0.006-0.021-0.01l-2.233-2.075c-0.403-0.375-1.037-0.353-1.413,0.052
		c-0.376,0.404-0.353,1.037,0.052,1.413l0.463,0.431h-3.048v-18.35c0-0.56-0.45-1-1-1h-4.42c-0.56,0-1,0.44-1,1v18.35h-3.65v-14.66
		c0-0.56-0.45-1-1-1h-4.42c-0.56,0-1,0.44-1,1v14.66h-3.65v-9.13c0-0.55-0.45-1-1-1h-4.43c-0.55,0-1,0.45-1,1v9.13h-3.64v-12.82
		c0-0.55-0.45-1-1-1h-4.43c-0.55,0-1,0.45-1,1v12.82h-3.65v-5.44c0-0.55-0.44-1-1-1h-4.42c-0.55,0-1,0.45-1,1v5.44h-5.69V5.313
		l0.433,0.466C5.395,6.184,6.027,6.207,6.431,5.83c0.404-0.376,0.427-1.009,0.051-1.413L4.314,2.085
		C4.305,2.074,4.29,2.071,4.279,2.061C4.24,2.025,4.201,1.99,4.154,1.959c-0.03-0.03-0.07-0.05-0.11-0.07
		c-0.01-0.01-0.02-0.01-0.03-0.01c-0.001-0.001-0.002,0-0.004-0.001C3.977,1.862,3.942,1.854,3.906,1.842
		C3.888,1.837,3.867,1.829,3.854,1.829c-0.05-0.01-0.08-0.02-0.13-0.03c-0.01,0-0.02,0-0.03-0.01c-0.04-0.01-0.07-0.02-0.11-0.02
		c-0.01,0-0.03,0-0.05,0.01c-0.108,0.006-0.21,0.032-0.309,0.069c-0.039,0.014-0.072,0.036-0.11,0.055
		C3.079,1.923,3.039,1.935,3.004,1.959C2.968,1.988,2.931,2.021,2.895,2.054C2.882,2.067,2.862,2.071,2.85,2.085L0.683,4.417
		C0.307,4.821,0.33,5.454,0.735,5.83c0.192,0.179,0.437,0.268,0.681,0.268c0.268,0,0.536-0.107,0.732-0.319l0.437-0.47v55.521
		c0,0.55,0.45,1,1,1h7.59c0.03,0.01,0.07,0.01,0.1,0.01s0.07,0,0.1-0.01h4.22c0.03,0.01,0.07,0.01,0.1,0.01c0.04,0,0.07,0,0.1-0.01
		h5.45c0.03,0.01,0.07,0.01,0.1,0.01c0.03,0,0.07,0,0.1-0.01h4.23c0.03,0.01,0.06,0.01,0.1,0.01c0.03,0,0.07,0,0.1-0.01h5.44
		c0.03,0.01,0.07,0.01,0.1,0.01c0.04,0,0.07,0,0.1-0.01h4.23c0.03,0.01,0.07,0.01,0.1,0.01s0.07,0,0.1-0.01h5.45
		c0.03,0.01,0.06,0.01,0.1,0.01c0.03,0,0.07,0,0.1-0.01h4.22c0.03,0.01,0.06,0.01,0.1,0.01c0.03,0,0.07,0,0.1-0.01h5.45
		c0.03,0.01,0.07,0.01,0.1,0.01c0.03,0,0.07,0,0.1-0.01h4.22c0.03,0.01,0.07,0.01,0.1,0.01s0.07,0,0.1-0.01h3.957l-0.472,0.439
		c-0.405,0.376-0.428,1.009-0.052,1.413c0.197,0.212,0.464,0.319,0.732,0.319c0.244,0,0.488-0.088,0.681-0.268l2.319-2.155
		c0.004-0.004,0.011-0.005,0.015-0.009c0.05-0.05,0.09-0.1,0.13-0.16c0.03-0.037,0.053-0.086,0.074-0.134
		C63.524,61.166,63.552,61.047,63.563,60.924z"/><path fill="url(#b)" d="M13.834,42.369c1.74,0,3.16-1.42,3.16-3.16c0-0.72-0.24-1.38-0.65-1.91l5.7-6.85
		c0.45,0.25,0.96,0.39,1.51,0.39c0.76,0,1.46-0.26,2-0.71l4.99,5.29c-0.05,0.23-0.08,0.47-0.08,0.72c0,1.75,1.42,3.17,3.17,3.17
		c1.74,0,3.16-1.42,3.16-3.17c0-0.43-0.09-0.84-0.24-1.22l5.61-7.46c0.46,0.26,0.98,0.41,1.54,0.41c0.629,0,1.218-0.19,1.708-0.509
		l5.65,4.993c-0.299,0.479-0.458,1.028-0.458,1.626c0,1.75,1.42,3.16,3.17,3.16c1.74,0,3.16-1.41,3.16-3.16
		c0-1.74-1.42-3.16-3.16-3.16c-0.419,0-0.798,0.08-1.167,0.229l-5.942-5.25c0.13-0.34,0.2-0.709,0.2-1.089
		c0-1.75-1.42-3.17-3.16-3.17c-1.75,0-3.17,1.42-3.17,3.17c0,0.44,0.09,0.86,0.26,1.24l-5.6,7.45c-0.46-0.27-0.99-0.42-1.56-0.42
		c-0.75,0-1.44,0.26-1.98,0.69l-5.01-5.28c0.05-0.23,0.08-0.47,0.08-0.71c0-1.75-1.42-3.17-3.17-3.17c-1.74,0-3.16,1.42-3.16,3.17
		c0,0.46,0.1,0.89,0.28,1.28l-5.98,7.21c-0.27-0.08-0.56-0.12-0.86-0.12c-1.75,0-3.17,1.41-3.17,3.16
		C10.664,40.949,12.084,42.369,13.834,42.369z"/><path fill="url(#c)" d="M40.964,7.819c0.01-0.15,0.02-0.31,0.02-0.46c0-1.74-0.68-3.42-1.94-4.77
		c-1.54-1.65-3.71-2.59-5.97-2.59c-2.13,0-4.12,0.83-5.62,2.34c-1.48,1.49-2.29,3.46-2.27,5.55c0.03,4.42,5.74,12.52,7.88,15.4
		C35.144,20.419,40.654,12.409,40.964,7.819z M27.764,7.039c0-2.93,2.39-5.32,5.32-5.32s5.31,2.39,5.31,5.32s-2.38,5.31-5.31,5.31
		S27.764,9.969,27.764,7.039z"/><path fill="url(#c)" d="M36.394,7.039c0-1.83-1.48-3.32-3.31-3.32c-1.83,0-3.32,1.49-3.32,3.32
		s1.49,3.31,3.32,3.31C34.914,10.349,36.394,8.869,36.394,7.039z"/></svg>