<svg xmlns="http://www.w3.org/2000/svg" xmlns:xlink="http://www.w3.org/1999/xlink" viewBox="0 0 500 500"><defs><style>.cls-1{isolation:isolate;}.cls-2{fill:url(#linear-gradient);}.cls-3{fill:url(#linear-gradient-2);}.cls-4{fill:url(#linear-gradient-3);}.cls-5{fill:url(#linear-gradient-4);}.cls-6{fill:url(#linear-gradient-5);}.cls-7{fill:url(#linear-gradient-6);}.cls-8{fill:url(#linear-gradient-7);}.cls-9{fill:url(#linear-gradient-8);}.cls-10{fill:url(#linear-gradient-9);}.cls-11{fill:url(#linear-gradient-10);}.cls-12{fill:url(#linear-gradient-11);}.cls-13{fill:url(#linear-gradient-12);}.cls-14,.cls-15,.cls-16{fill:none;stroke:#a59df6;stroke-linecap:round;stroke-linejoin:round;stroke-width:1.87px;}.cls-14{stroke-dasharray:0 5.61;}.cls-16{stroke-dasharray:0 5.62;}.cls-17{fill:url(#linear-gradient-13);}.cls-18{fill:url(#linear-gradient-14);}.cls-19{fill:url(#linear-gradient-15);}.cls-20{fill:#fff;}.cls-21{font-size:25.87px;font-family:Montserrat-Bold, Montserrat;font-weight:700;}.cls-137,.cls-21{fill:#a59df6;}.cls-22{fill:url(#linear-gradient-16);}.cls-23{fill:url(#linear-gradient-17);}.cls-24{fill:url(#linear-gradient-18);}.cls-25{fill:url(#linear-gradient-19);}.cls-26{fill:url(#linear-gradient-20);}.cls-27{fill:url(#linear-gradient-21);}.cls-28{fill:url(#linear-gradient-22);}.cls-29{fill:url(#linear-gradient-23);}.cls-30{fill:url(#linear-gradient-24);}.cls-31{fill:url(#linear-gradient-25);}.cls-32{fill:url(#linear-gradient-26);}.cls-33{fill:url(#linear-gradient-27);}.cls-34{fill:url(#linear-gradient-28);}.cls-35{fill:url(#linear-gradient-29);}.cls-36{fill:url(#linear-gradient-30);}.cls-37{fill:url(#linear-gradient-31);}.cls-38{fill:url(#linear-gradient-32);}.cls-39{fill:url(#linear-gradient-33);}.cls-40{fill:url(#linear-gradient-34);}.cls-41{fill:url(#linear-gradient-35);}.cls-42{fill:url(#linear-gradient-36);}.cls-43{fill:url(#linear-gradient-37);}.cls-44{fill:url(#linear-gradient-38);}.cls-45{fill:url(#linear-gradient-39);}.cls-46{fill:url(#linear-gradient-40);}.cls-47{fill:url(#linear-gradient-41);}.cls-48{fill:url(#linear-gradient-42);}.cls-49{fill:url(#linear-gradient-43);}.cls-50{fill:url(#linear-gradient-44);}.cls-51{fill:url(#linear-gradient-45);}.cls-52{fill:url(#linear-gradient-46);}.cls-53{fill:url(#linear-gradient-47);}.cls-54{fill:url(#linear-gradient-48);}.cls-55{fill:url(#linear-gradient-49);}.cls-56{fill:url(#linear-gradient-50);}.cls-57{fill:url(#linear-gradient-51);}.cls-58{fill:url(#linear-gradient-52);}.cls-59{fill:url(#linear-gradient-53);}.cls-60{fill:url(#linear-gradient-54);}.cls-61{fill:url(#linear-gradient-55);}.cls-62{fill:url(#linear-gradient-56);}.cls-63{fill:url(#linear-gradient-57);}.cls-64{fill:url(#linear-gradient-58);}.cls-65{fill:url(#linear-gradient-59);}.cls-66{fill:url(#linear-gradient-60);}.cls-67{fill:url(#linear-gradient-61);}.cls-68{fill:url(#linear-gradient-62);}.cls-69{fill:url(#linear-gradient-63);}.cls-70{fill:url(#linear-gradient-64);}.cls-71{fill:url(#linear-gradient-65);}.cls-72{fill:url(#linear-gradient-66);}.cls-73{fill:url(#linear-gradient-67);}.cls-74{fill:url(#linear-gradient-68);}.cls-75{fill:url(#linear-gradient-69);}.cls-76{fill:url(#linear-gradient-70);}.cls-77{fill:url(#linear-gradient-71);}.cls-78{fill:url(#linear-gradient-72);}.cls-79{fill:url(#linear-gradient-73);}.cls-80{fill:url(#linear-gradient-74);}.cls-81{fill:url(#linear-gradient-75);}.cls-82{fill:url(#linear-gradient-76);}.cls-83{fill:url(#linear-gradient-77);}.cls-84{fill:url(#linear-gradient-78);}.cls-85{fill:url(#linear-gradient-79);}.cls-86{fill:url(#linear-gradient-80);}.cls-87{fill:url(#linear-gradient-81);}.cls-88{fill:url(#linear-gradient-82);}.cls-89{fill:url(#linear-gradient-83);}.cls-90{fill:url(#linear-gradient-84);}.cls-91{fill:url(#linear-gradient-85);}.cls-92{fill:url(#linear-gradient-86);}.cls-93{fill:url(#linear-gradient-87);}.cls-94{fill:url(#linear-gradient-88);}.cls-95{fill:url(#linear-gradient-89);}.cls-96{fill:url(#linear-gradient-90);}.cls-97{fill:url(#linear-gradient-91);}.cls-98{fill:url(#linear-gradient-92);}.cls-99{fill:url(#linear-gradient-93);}.cls-100{fill:url(#linear-gradient-94);}.cls-101{fill:url(#linear-gradient-95);}.cls-102{fill:url(#linear-gradient-96);}.cls-103{fill:url(#linear-gradient-97);}.cls-104{fill:url(#linear-gradient-98);}.cls-105{fill:url(#linear-gradient-99);}.cls-106{fill:url(#linear-gradient-100);}.cls-107{fill:url(#linear-gradient-101);}.cls-108{fill:url(#linear-gradient-102);}.cls-109{fill:url(#linear-gradient-103);}.cls-110{fill:url(#linear-gradient-104);}.cls-111{fill:url(#linear-gradient-105);}.cls-112{fill:url(#linear-gradient-106);}.cls-113{fill:url(#linear-gradient-107);}.cls-114{fill:url(#linear-gradient-108);}.cls-115{fill:url(#linear-gradient-109);}.cls-116{fill:url(#linear-gradient-110);}.cls-117{fill:url(#linear-gradient-111);}.cls-118{fill:url(#linear-gradient-112);}.cls-119{fill:url(#linear-gradient-113);}.cls-120{fill:url(#linear-gradient-114);}.cls-121{fill:url(#linear-gradient-115);}.cls-122{fill:url(#linear-gradient-116);}.cls-123{fill:url(#linear-gradient-117);}.cls-124{fill:url(#linear-gradient-118);}.cls-125{fill:url(#linear-gradient-119);}.cls-126{fill:url(#linear-gradient-120);}.cls-127{fill:url(#linear-gradient-121);}.cls-128{fill:url(#linear-gradient-122);}.cls-129{fill:url(#linear-gradient-123);}.cls-130{fill:url(#linear-gradient-124);}.cls-131{fill:url(#linear-gradient-125);}.cls-132{fill:url(#linear-gradient-126);}.cls-133{fill:url(#linear-gradient-127);}.cls-134{fill:url(#linear-gradient-128);}.cls-135{fill:url(#linear-gradient-129);}.cls-136{fill:url(#linear-gradient-130);}.cls-138{fill:url(#linear-gradient-131);}.cls-139{fill:url(#linear-gradient-132);}.cls-140{fill:url(#linear-gradient-133);}.cls-141{fill:url(#linear-gradient-134);}.cls-142{fill:url(#linear-gradient-135);}.cls-143{fill:url(#linear-gradient-136);}.cls-144{fill:url(#linear-gradient-137);}.cls-145{fill:url(#linear-gradient-138);}.cls-146{fill:url(#linear-gradient-139);}.cls-147{fill:url(#linear-gradient-140);}.cls-148{fill:url(#linear-gradient-141);}.cls-149{fill:url(#linear-gradient-142);}.cls-150{fill:url(#linear-gradient-143);}.cls-151{fill:url(#linear-gradient-144);}.cls-152{fill:url(#linear-gradient-145);}.cls-153{fill:url(#linear-gradient-146);}.cls-154{fill:url(#linear-gradient-147);}.cls-155{fill:url(#linear-gradient-148);}.cls-156{fill:url(#linear-gradient-149);}.cls-157{fill:url(#linear-gradient-150);}.cls-158{fill:url(#linear-gradient-151);}.cls-159{fill:url(#linear-gradient-152);}.cls-160{fill:url(#linear-gradient-153);}.cls-161{fill:url(#linear-gradient-154);}.cls-162{fill:url(#linear-gradient-155);}.cls-163{fill:url(#linear-gradient-156);}.cls-164{fill:url(#linear-gradient-157);}.cls-165{fill:url(#linear-gradient-158);}.cls-166{fill:url(#linear-gradient-159);}.cls-167{fill:url(#linear-gradient-160);}.cls-168{fill:url(#linear-gradient-161);}.cls-169{fill:url(#linear-gradient-162);}.cls-170{fill:url(#linear-gradient-163);}.cls-171{fill:url(#linear-gradient-164);}.cls-172{fill:url(#linear-gradient-165);}.cls-173{fill:url(#linear-gradient-166);}.cls-174{fill:url(#linear-gradient-167);}.cls-175{fill:url(#linear-gradient-168);}.cls-176{fill:url(#linear-gradient-169);}.cls-177{fill:url(#linear-gradient-170);}.cls-178{fill:url(#linear-gradient-171);}.cls-179{fill:url(#linear-gradient-172);}.cls-180{fill:url(#linear-gradient-173);}.cls-181{fill:url(#linear-gradient-174);}.cls-182{fill:url(#linear-gradient-175);}.cls-183{fill:url(#linear-gradient-176);}.cls-184{fill:url(#linear-gradient-177);}.cls-185{fill:url(#linear-gradient-178);}.cls-186{fill:url(#linear-gradient-179);}.cls-187{fill:url(#linear-gradient-180);}.cls-188{fill:url(#linear-gradient-181);}.cls-189{fill:url(#linear-gradient-182);}.cls-190{fill:url(#linear-gradient-183);}.cls-191{fill:url(#linear-gradient-184);}.cls-192{fill:url(#linear-gradient-185);}.cls-193{fill:url(#linear-gradient-186);}.cls-194{fill:url(#linear-gradient-187);}.cls-195{fill:url(#linear-gradient-188);}.cls-196{fill:url(#linear-gradient-189);}.cls-197{fill:url(#linear-gradient-190);}.cls-198{fill:url(#linear-gradient-191);}.cls-199{fill:url(#linear-gradient-192);}.cls-200{fill:url(#linear-gradient-193);}.cls-201{fill:url(#linear-gradient-194);}.cls-202{fill:url(#linear-gradient-195);}.cls-203{fill:url(#linear-gradient-196);}.cls-204{fill:url(#linear-gradient-197);}.cls-205{fill:url(#linear-gradient-198);}.cls-206{fill:url(#linear-gradient-199);}.cls-207{fill:url(#linear-gradient-200);}.cls-208{fill:url(#linear-gradient-201);}.cls-209{fill:url(#linear-gradient-202);}.cls-210{fill:url(#linear-gradient-203);}.cls-211{fill:url(#linear-gradient-204);}.cls-212{fill:url(#linear-gradient-205);}.cls-213{fill:url(#linear-gradient-206);}.cls-214{fill:url(#linear-gradient-207);}.cls-215{fill:url(#linear-gradient-208);}.cls-216{fill:url(#linear-gradient-209);}.cls-217{fill:url(#linear-gradient-210);}.cls-218{fill:url(#linear-gradient-211);}.cls-219{fill:url(#linear-gradient-212);}.cls-220{fill:url(#linear-gradient-213);}.cls-221{fill:url(#linear-gradient-214);}.cls-222{fill:url(#linear-gradient-215);}.cls-223{fill:url(#linear-gradient-216);}.cls-224{fill:url(#linear-gradient-217);}.cls-225{fill:url(#linear-gradient-218);}.cls-226{fill:url(#linear-gradient-219);}.cls-227{fill:url(#linear-gradient-220);}.cls-228{fill:url(#linear-gradient-221);}.cls-229{fill:url(#linear-gradient-222);}.cls-230{fill:url(#linear-gradient-223);}.cls-231{fill:url(#linear-gradient-224);}.cls-232{fill:url(#linear-gradient-225);}.cls-233{fill:url(#linear-gradient-226);}.cls-234{fill:url(#linear-gradient-227);}.cls-235{fill:url(#linear-gradient-228);}.cls-236{fill:url(#linear-gradient-229);}.cls-237{fill:url(#linear-gradient-230);}.cls-238{fill:url(#linear-gradient-231);}.cls-239{fill:url(#linear-gradient-232);}.cls-240{opacity:0.52;fill:url(#linear-gradient-233);}.cls-241{fill:url(#linear-gradient-234);}.cls-242{fill:url(#linear-gradient-235);}.cls-243{fill:url(#linear-gradient-236);}.cls-244{fill:url(#linear-gradient-237);}.cls-245{fill:url(#linear-gradient-238);}.cls-246{fill:url(#linear-gradient-239);}.cls-247{fill:url(#linear-gradient-240);}.cls-248{fill:url(#linear-gradient-241);}.cls-249{fill:url(#linear-gradient-242);}</style><linearGradient id="linear-gradient" x1="361.42" y1="74.56" x2="302.83" y2="171.71" gradientUnits="userSpaceOnUse"><stop offset="0" stop-color="#ffe30b"/><stop offset="1" stop-color="#ff712f"/></linearGradient><linearGradient id="linear-gradient-2" x1="287.05" y1="112.78" x2="351.56" y2="175.81" gradientTransform="translate(459.57 -175.38) rotate(89.84)" xlink:href="#linear-gradient"/><linearGradient id="linear-gradient-3" x1="361.42" y1="63.44" x2="302.83" y2="160.58" xlink:href="#linear-gradient"/><linearGradient id="linear-gradient-4" x1="287.05" y1="101.66" x2="351.56" y2="164.69" gradientTransform="translate(448.44 -186.47) rotate(89.84)" xlink:href="#linear-gradient"/><linearGradient id="linear-gradient-5" x1="361.42" y1="52.31" x2="302.83" y2="149.46" xlink:href="#linear-gradient"/><linearGradient id="linear-gradient-6" x1="296.19" y1="102.16" x2="371.09" y2="165.94" gradientTransform="translate(437.32 -197.56) rotate(89.84)" xlink:href="#linear-gradient"/><linearGradient id="linear-gradient-7" x1="407.19" y1="86.58" x2="348.61" y2="183.72" xlink:href="#linear-gradient"/><linearGradient id="linear-gradient-8" x1="332.82" y1="124.79" x2="397.34" y2="187.83" xlink:href="#linear-gradient"/><linearGradient id="linear-gradient-9" x1="407.19" y1="75.45" x2="348.61" y2="172.6" xlink:href="#linear-gradient"/><linearGradient id="linear-gradient-10" x1="332.82" y1="113.67" x2="397.34" y2="176.7" xlink:href="#linear-gradient"/><linearGradient id="linear-gradient-11" x1="407.19" y1="64.33" x2="348.61" y2="161.47" xlink:href="#linear-gradient"/><linearGradient id="linear-gradient-12" x1="329.31" y1="101.07" x2="412.36" y2="177.45" gradientTransform="translate(494.98 -231.36) rotate(89.84)" xlink:href="#linear-gradient"/><linearGradient id="linear-gradient-13" x1="223.68" y1="125.3" x2="240.22" y2="296.41" gradientUnits="userSpaceOnUse"><stop offset="0" stop-color="#0763bd"/><stop offset="1" stop-color="#172a7c"/></linearGradient><linearGradient id="linear-gradient-14" x1="157.95" y1="173.32" x2="326.09" y2="324.47" gradientUnits="userSpaceOnUse"><stop offset="0.04" stop-color="#e3ebff"/><stop offset="1" stop-color="#978ef0"/></linearGradient><linearGradient id="linear-gradient-15" x1="177.23" y1="188.43" x2="258.55" y2="263.25" xlink:href="#linear-gradient-14"/><linearGradient id="linear-gradient-16" x1="60.4" y1="164.68" x2="186.31" y2="164.68" xlink:href="#linear-gradient-14"/><linearGradient id="linear-gradient-17" x1="101.11" y1="197.87" x2="195.68" y2="197.87" xlink:href="#linear-gradient-14"/><linearGradient id="linear-gradient-18" x1="102.37" y1="161.82" x2="171.12" y2="230.57" xlink:href="#linear-gradient-13"/><linearGradient id="linear-gradient-19" x1="126.24" y1="137.95" x2="194.99" y2="206.7" xlink:href="#linear-gradient-13"/><linearGradient id="linear-gradient-20" x1="51.36" y1="157.29" x2="128.97" y2="234.91" xlink:href="#linear-gradient-14"/><linearGradient id="linear-gradient-21" x1="61.27" y1="-21.9" x2="84.59" y2="1.42" gradientTransform="matrix(0.87, -0.5, 0, 1.15, 75.47, 253.69)" xlink:href="#linear-gradient"/><linearGradient id="linear-gradient-22" x1="65.23" y1="-26.56" x2="88.94" y2="-2.86" gradientTransform="matrix(0.87, -0.5, 0, 1.15, 75.47, 253.69)" xlink:href="#linear-gradient"/><linearGradient id="linear-gradient-23" x1="69.57" y1="-30.77" x2="92.9" y2="-7.44" gradientTransform="matrix(0.87, -0.5, 0, 1.15, 75.47, 253.69)" xlink:href="#linear-gradient"/><linearGradient id="linear-gradient-24" x1="70.55" y1="-36.12" x2="96.26" y2="-10.41" gradientTransform="matrix(0.87, -0.5, 0, 1.15, 75.47, 253.69)" xlink:href="#linear-gradient"/><linearGradient id="linear-gradient-25" x1="60" y1="-17.21" x2="83.87" y2="6.66" gradientTransform="matrix(0.87, -0.5, 0, 1.15, 75.47, 253.69)" xlink:href="#linear-gradient"/><linearGradient id="linear-gradient-26" x1="65.34" y1="-22.31" x2="88.44" y2="0.78" gradientTransform="matrix(0.87, -0.5, 0, 1.15, 75.47, 253.69)" xlink:href="#linear-gradient"/><linearGradient id="linear-gradient-27" x1="70.94" y1="-28.72" x2="94.37" y2="-5.29" gradientTransform="matrix(0.87, -0.5, 0, 1.15, 75.47, 253.69)" xlink:href="#linear-gradient"/><linearGradient id="linear-gradient-28" x1="64.2" y1="-19.15" x2="88.9" y2="5.55" gradientTransform="matrix(0.87, -0.5, 0, 1.15, 75.47, 253.69)" xlink:href="#linear-gradient"/><linearGradient id="linear-gradient-29" x1="69.67" y1="-23.15" x2="92.75" y2="-0.06" gradientTransform="matrix(0.87, -0.5, 0, 1.15, 75.47, 253.69)" xlink:href="#linear-gradient"/><linearGradient id="linear-gradient-30" x1="61.41" y1="-14.66" x2="84.69" y2="8.62" gradientTransform="matrix(0.87, -0.5, 0, 1.15, 75.47, 253.69)" xlink:href="#linear-gradient"/><linearGradient id="linear-gradient-31" x1="64.51" y1="-13.91" x2="87.43" y2="9.01" gradientTransform="matrix(0.87, -0.5, 0, 1.15, 75.47, 253.69)" xlink:href="#linear-gradient"/><linearGradient id="linear-gradient-32" x1="71.24" y1="-22.14" x2="94.93" y2="1.56" gradientTransform="matrix(0.87, -0.5, 0, 1.15, 75.47, 253.69)" xlink:href="#linear-gradient"/><linearGradient id="linear-gradient-33" x1="101.45" y1="-34.61" x2="104.82" y2="-32.06" gradientTransform="matrix(0.87, -0.5, 0, 1.15, 80.31, 273.56)" xlink:href="#linear-gradient"/><linearGradient id="linear-gradient-34" x1="105.65" y1="-34.61" x2="109.02" y2="-32.06" gradientTransform="matrix(0.87, -0.5, 0, 1.15, 80.31, 273.56)" xlink:href="#linear-gradient"/><linearGradient id="linear-gradient-35" x1="109.85" y1="-34.61" x2="113.22" y2="-32.06" gradientTransform="matrix(0.87, -0.5, 0, 1.15, 80.31, 273.56)" xlink:href="#linear-gradient"/><linearGradient id="linear-gradient-36" x1="114.05" y1="-34.61" x2="117.42" y2="-32.06" gradientTransform="matrix(0.87, -0.5, 0, 1.15, 80.31, 273.56)" xlink:href="#linear-gradient"/><linearGradient id="linear-gradient-37" x1="101.45" y1="-31.18" x2="104.82" y2="-28.64" gradientTransform="matrix(0.87, -0.5, 0, 1.15, 80.31, 273.56)" xlink:href="#linear-gradient"/><linearGradient id="linear-gradient-38" x1="105.65" y1="-31.18" x2="109.02" y2="-28.64" gradientTransform="matrix(0.87, -0.5, 0, 1.15, 80.31, 273.56)" xlink:href="#linear-gradient"/><linearGradient id="linear-gradient-39" x1="109.85" y1="-31.18" x2="113.22" y2="-28.64" gradientTransform="matrix(0.87, -0.5, 0, 1.15, 80.31, 273.56)" xlink:href="#linear-gradient"/><linearGradient id="linear-gradient-40" x1="114.05" y1="-31.18" x2="117.42" y2="-28.64" gradientTransform="matrix(0.87, -0.5, 0, 1.15, 80.31, 273.56)" xlink:href="#linear-gradient"/><linearGradient id="linear-gradient-41" x1="101.45" y1="-27.75" x2="104.82" y2="-25.21" gradientTransform="matrix(0.87, -0.5, 0, 1.15, 80.31, 273.56)" xlink:href="#linear-gradient"/><linearGradient id="linear-gradient-42" x1="105.65" y1="-27.75" x2="109.02" y2="-25.21" gradientTransform="matrix(0.87, -0.5, 0, 1.15, 80.31, 273.56)" xlink:href="#linear-gradient"/><linearGradient id="linear-gradient-43" x1="109.85" y1="-27.75" x2="113.22" y2="-25.21" gradientTransform="matrix(0.87, -0.5, 0, 1.15, 80.31, 273.56)" xlink:href="#linear-gradient"/><linearGradient id="linear-gradient-44" x1="114.05" y1="-27.75" x2="117.42" y2="-25.21" gradientTransform="matrix(0.87, -0.5, 0, 1.15, 80.31, 273.56)" xlink:href="#linear-gradient"/><linearGradient id="linear-gradient-45" x1="101.45" y1="-24.33" x2="104.82" y2="-21.79" gradientTransform="matrix(0.87, -0.5, 0, 1.15, 80.31, 273.56)" xlink:href="#linear-gradient"/><linearGradient id="linear-gradient-46" x1="105.65" y1="-24.33" x2="109.02" y2="-21.79" gradientTransform="matrix(0.87, -0.5, 0, 1.15, 80.31, 273.56)" xlink:href="#linear-gradient"/><linearGradient id="linear-gradient-47" x1="109.85" y1="-24.33" x2="113.22" y2="-21.79" gradientTransform="matrix(0.87, -0.5, 0, 1.15, 80.31, 273.56)" xlink:href="#linear-gradient"/><linearGradient id="linear-gradient-48" x1="114.05" y1="-24.33" x2="117.42" y2="-21.79" gradientTransform="matrix(0.87, -0.5, 0, 1.15, 80.31, 273.56)" xlink:href="#linear-gradient"/><linearGradient id="linear-gradient-49" x1="68.72" y1="139.24" x2="177.99" y2="139.24" xlink:href="#linear-gradient-13"/><linearGradient id="linear-gradient-50" x1="104.05" y1="168.04" x2="186.11" y2="168.04" xlink:href="#linear-gradient-13"/><linearGradient id="linear-gradient-51" x1="60.87" y1="132.82" x2="128.23" y2="200.18" xlink:href="#linear-gradient-13"/><linearGradient id="linear-gradient-52" x1="60.4" y1="125.41" x2="186.31" y2="125.41" xlink:href="#linear-gradient-14"/><linearGradient id="linear-gradient-53" x1="101.11" y1="158.59" x2="195.68" y2="158.59" xlink:href="#linear-gradient-14"/><linearGradient id="linear-gradient-54" x1="102.37" y1="122.55" x2="171.12" y2="191.3" xlink:href="#linear-gradient-13"/><linearGradient id="linear-gradient-55" x1="126.24" y1="98.68" x2="194.99" y2="167.43" xlink:href="#linear-gradient-13"/><linearGradient id="linear-gradient-56" x1="51.36" y1="118.02" x2="128.97" y2="195.63" xlink:href="#linear-gradient-14"/><linearGradient id="linear-gradient-57" x1="61.27" y1="-55.91" x2="84.59" y2="-32.59" gradientTransform="matrix(0.87, -0.5, 0, 1.15, 75.47, 253.69)" xlink:href="#linear-gradient"/><linearGradient id="linear-gradient-58" x1="65.23" y1="-60.58" x2="88.94" y2="-36.87" gradientTransform="matrix(0.87, -0.5, 0, 1.15, 75.47, 253.69)" xlink:href="#linear-gradient"/><linearGradient id="linear-gradient-59" x1="69.57" y1="-64.78" x2="92.9" y2="-41.46" gradientTransform="matrix(0.87, -0.5, 0, 1.15, 75.47, 253.69)" xlink:href="#linear-gradient"/><linearGradient id="linear-gradient-60" x1="70.55" y1="-70.13" x2="96.26" y2="-44.42" gradientTransform="matrix(0.87, -0.5, 0, 1.15, 75.47, 253.69)" xlink:href="#linear-gradient"/><linearGradient id="linear-gradient-61" x1="60" y1="-51.22" x2="83.87" y2="-27.35" gradientTransform="matrix(0.87, -0.5, 0, 1.15, 75.47, 253.69)" xlink:href="#linear-gradient"/><linearGradient id="linear-gradient-62" x1="65.34" y1="-56.33" x2="88.44" y2="-33.23" gradientTransform="matrix(0.87, -0.5, 0, 1.15, 75.47, 253.69)" xlink:href="#linear-gradient"/><linearGradient id="linear-gradient-63" x1="70.94" y1="-62.74" x2="94.37" y2="-39.31" gradientTransform="matrix(0.87, -0.5, 0, 1.15, 75.47, 253.69)" xlink:href="#linear-gradient"/><linearGradient id="linear-gradient-64" x1="64.2" y1="-53.17" x2="88.9" y2="-28.47" gradientTransform="matrix(0.87, -0.5, 0, 1.15, 75.47, 253.69)" xlink:href="#linear-gradient"/><linearGradient id="linear-gradient-65" x1="69.67" y1="-57.16" x2="92.75" y2="-34.08" gradientTransform="matrix(0.87, -0.5, 0, 1.15, 75.47, 253.69)" xlink:href="#linear-gradient"/><linearGradient id="linear-gradient-66" x1="61.41" y1="-48.68" x2="84.69" y2="-25.4" gradientTransform="matrix(0.87, -0.5, 0, 1.15, 75.47, 253.69)" xlink:href="#linear-gradient"/><linearGradient id="linear-gradient-67" x1="64.51" y1="-47.93" x2="87.43" y2="-25.01" gradientTransform="matrix(0.87, -0.5, 0, 1.15, 75.47, 253.69)" xlink:href="#linear-gradient"/><linearGradient id="linear-gradient-68" x1="71.24" y1="-56.15" x2="94.93" y2="-32.46" gradientTransform="matrix(0.87, -0.5, 0, 1.15, 75.47, 253.69)" xlink:href="#linear-gradient"/><linearGradient id="linear-gradient-69" x1="101.45" y1="-68.62" x2="104.82" y2="-66.08" gradientTransform="matrix(0.87, -0.5, 0, 1.15, 80.31, 273.56)" xlink:href="#linear-gradient"/><linearGradient id="linear-gradient-70" x1="105.65" y1="-68.62" x2="109.02" y2="-66.08" gradientTransform="matrix(0.87, -0.5, 0, 1.15, 80.31, 273.56)" xlink:href="#linear-gradient"/><linearGradient id="linear-gradient-71" x1="109.85" y1="-68.62" x2="113.22" y2="-66.08" gradientTransform="matrix(0.87, -0.5, 0, 1.15, 80.31, 273.56)" xlink:href="#linear-gradient"/><linearGradient id="linear-gradient-72" x1="114.05" y1="-68.62" x2="117.42" y2="-66.08" gradientTransform="matrix(0.87, -0.5, 0, 1.15, 80.31, 273.56)" xlink:href="#linear-gradient"/><linearGradient id="linear-gradient-73" x1="101.45" y1="-65.19" x2="104.82" y2="-62.65" gradientTransform="matrix(0.87, -0.5, 0, 1.15, 80.31, 273.56)" xlink:href="#linear-gradient"/><linearGradient id="linear-gradient-74" x1="105.65" y1="-65.19" x2="109.02" y2="-62.65" gradientTransform="matrix(0.87, -0.5, 0, 1.15, 80.31, 273.56)" xlink:href="#linear-gradient"/><linearGradient id="linear-gradient-75" x1="109.85" y1="-65.19" x2="113.22" y2="-62.65" gradientTransform="matrix(0.87, -0.5, 0, 1.15, 80.31, 273.56)" xlink:href="#linear-gradient"/><linearGradient id="linear-gradient-76" x1="114.05" y1="-65.19" x2="117.42" y2="-62.65" gradientTransform="matrix(0.87, -0.5, 0, 1.15, 80.31, 273.56)" xlink:href="#linear-gradient"/><linearGradient id="linear-gradient-77" x1="101.45" y1="-61.77" x2="104.82" y2="-59.23" gradientTransform="matrix(0.87, -0.5, 0, 1.15, 80.31, 273.56)" xlink:href="#linear-gradient"/><linearGradient id="linear-gradient-78" x1="105.65" y1="-61.77" x2="109.02" y2="-59.23" gradientTransform="matrix(0.87, -0.5, 0, 1.15, 80.31, 273.56)" xlink:href="#linear-gradient"/><linearGradient id="linear-gradient-79" x1="109.85" y1="-61.77" x2="113.22" y2="-59.23" gradientTransform="matrix(0.87, -0.5, 0, 1.15, 80.31, 273.56)" xlink:href="#linear-gradient"/><linearGradient id="linear-gradient-80" x1="114.05" y1="-61.77" x2="117.42" y2="-59.23" gradientTransform="matrix(0.87, -0.5, 0, 1.15, 80.31, 273.56)" xlink:href="#linear-gradient"/><linearGradient id="linear-gradient-81" x1="101.45" y1="-58.34" x2="104.82" y2="-55.8" gradientTransform="matrix(0.87, -0.5, 0, 1.15, 80.31, 273.56)" xlink:href="#linear-gradient"/><linearGradient id="linear-gradient-82" x1="105.65" y1="-58.34" x2="109.02" y2="-55.8" gradientTransform="matrix(0.87, -0.5, 0, 1.15, 80.31, 273.56)" xlink:href="#linear-gradient"/><linearGradient id="linear-gradient-83" x1="109.85" y1="-58.34" x2="113.22" y2="-55.8" gradientTransform="matrix(0.87, -0.5, 0, 1.15, 80.31, 273.56)" xlink:href="#linear-gradient"/><linearGradient id="linear-gradient-84" x1="114.05" y1="-58.34" x2="117.42" y2="-55.8" gradientTransform="matrix(0.87, -0.5, 0, 1.15, 80.31, 273.56)" xlink:href="#linear-gradient"/><linearGradient id="linear-gradient-85" x1="68.72" y1="99.96" x2="177.99" y2="99.96" xlink:href="#linear-gradient-13"/><linearGradient id="linear-gradient-86" x1="104.05" y1="128.76" x2="186.11" y2="128.76" xlink:href="#linear-gradient-13"/><linearGradient id="linear-gradient-87" x1="60.87" y1="93.55" x2="128.23" y2="160.9" xlink:href="#linear-gradient-13"/><linearGradient id="linear-gradient-88" x1="53.05" y1="63.52" x2="216.79" y2="116.18" xlink:href="#linear-gradient-14"/><linearGradient id="linear-gradient-89" x1="101.11" y1="119.32" x2="195.68" y2="119.32" xlink:href="#linear-gradient-14"/><linearGradient id="linear-gradient-90" x1="102.37" y1="83.27" x2="171.12" y2="152.02" xlink:href="#linear-gradient-13"/><linearGradient id="linear-gradient-91" x1="126.24" y1="59.4" x2="194.99" y2="128.15" xlink:href="#linear-gradient-13"/><linearGradient id="linear-gradient-92" x1="51.36" y1="78.74" x2="128.97" y2="156.35" xlink:href="#linear-gradient-14"/><linearGradient id="linear-gradient-93" x1="61.27" y1="-89.92" x2="84.59" y2="-66.61" gradientTransform="matrix(0.87, -0.5, 0, 1.15, 75.47, 253.69)" xlink:href="#linear-gradient"/><linearGradient id="linear-gradient-94" x1="65.23" y1="-94.59" x2="88.94" y2="-70.89" gradientTransform="matrix(0.87, -0.5, 0, 1.15, 75.47, 253.69)" xlink:href="#linear-gradient"/><linearGradient id="linear-gradient-95" x1="69.57" y1="-98.8" x2="92.9" y2="-75.47" gradientTransform="matrix(0.87, -0.5, 0, 1.15, 75.47, 253.69)" xlink:href="#linear-gradient"/><linearGradient id="linear-gradient-96" x1="70.55" y1="-104.15" x2="96.26" y2="-78.44" gradientTransform="matrix(0.87, -0.5, 0, 1.15, 75.47, 253.69)" xlink:href="#linear-gradient"/><linearGradient id="linear-gradient-97" x1="60" y1="-85.24" x2="83.87" y2="-61.36" gradientTransform="matrix(0.87, -0.5, 0, 1.15, 75.47, 253.69)" xlink:href="#linear-gradient"/><linearGradient id="linear-gradient-98" x1="65.34" y1="-90.34" x2="88.44" y2="-67.25" gradientTransform="matrix(0.87, -0.5, 0, 1.15, 75.47, 253.69)" xlink:href="#linear-gradient"/><linearGradient id="linear-gradient-99" x1="70.94" y1="-96.75" x2="94.37" y2="-73.32" gradientTransform="matrix(0.87, -0.5, 0, 1.15, 75.47, 253.69)" xlink:href="#linear-gradient"/><linearGradient id="linear-gradient-100" x1="64.2" y1="-87.18" x2="88.9" y2="-62.48" gradientTransform="matrix(0.87, -0.5, 0, 1.15, 75.47, 253.69)" xlink:href="#linear-gradient"/><linearGradient id="linear-gradient-101" x1="69.67" y1="-91.18" x2="92.75" y2="-68.09" gradientTransform="matrix(0.87, -0.5, 0, 1.15, 75.47, 253.69)" xlink:href="#linear-gradient"/><linearGradient id="linear-gradient-102" x1="61.41" y1="-82.69" x2="84.69" y2="-59.41" gradientTransform="matrix(0.87, -0.5, 0, 1.15, 75.47, 253.69)" xlink:href="#linear-gradient"/><linearGradient id="linear-gradient-103" x1="64.51" y1="-81.94" x2="87.43" y2="-59.02" gradientTransform="matrix(0.87, -0.5, 0, 1.15, 75.47, 253.69)" xlink:href="#linear-gradient"/><linearGradient id="linear-gradient-104" x1="71.24" y1="-90.17" x2="94.93" y2="-66.47" gradientTransform="matrix(0.87, -0.5, 0, 1.15, 75.47, 253.69)" xlink:href="#linear-gradient"/><linearGradient id="linear-gradient-105" x1="101.45" y1="-102.63" x2="104.82" y2="-100.09" gradientTransform="matrix(0.87, -0.5, 0, 1.15, 80.31, 273.56)" xlink:href="#linear-gradient"/><linearGradient id="linear-gradient-106" x1="105.65" y1="-102.63" x2="109.02" y2="-100.09" gradientTransform="matrix(0.87, -0.5, 0, 1.15, 80.31, 273.56)" xlink:href="#linear-gradient"/><linearGradient id="linear-gradient-107" x1="109.85" y1="-102.63" x2="113.22" y2="-100.09" gradientTransform="matrix(0.87, -0.5, 0, 1.15, 80.31, 273.56)" xlink:href="#linear-gradient"/><linearGradient id="linear-gradient-108" x1="114.05" y1="-102.63" x2="117.42" y2="-100.09" gradientTransform="matrix(0.87, -0.5, 0, 1.15, 80.31, 273.56)" xlink:href="#linear-gradient"/><linearGradient id="linear-gradient-109" x1="101.45" y1="-99.21" x2="104.82" y2="-96.67" gradientTransform="matrix(0.87, -0.5, 0, 1.15, 80.31, 273.56)" xlink:href="#linear-gradient"/><linearGradient id="linear-gradient-110" x1="105.65" y1="-99.21" x2="109.02" y2="-96.67" gradientTransform="matrix(0.87, -0.5, 0, 1.15, 80.31, 273.56)" xlink:href="#linear-gradient"/><linearGradient id="linear-gradient-111" x1="109.85" y1="-99.21" x2="113.22" y2="-96.67" gradientTransform="matrix(0.87, -0.5, 0, 1.15, 80.31, 273.56)" xlink:href="#linear-gradient"/><linearGradient id="linear-gradient-112" x1="114.05" y1="-99.21" x2="117.42" y2="-96.66" gradientTransform="matrix(0.87, -0.5, 0, 1.15, 80.31, 273.56)" xlink:href="#linear-gradient"/><linearGradient id="linear-gradient-113" x1="101.45" y1="-95.78" x2="104.82" y2="-93.24" gradientTransform="matrix(0.87, -0.5, 0, 1.15, 80.31, 273.56)" xlink:href="#linear-gradient"/><linearGradient id="linear-gradient-114" x1="105.65" y1="-95.78" x2="109.02" y2="-93.24" gradientTransform="matrix(0.87, -0.5, 0, 1.15, 80.31, 273.56)" xlink:href="#linear-gradient"/><linearGradient id="linear-gradient-115" x1="109.85" y1="-95.78" x2="113.22" y2="-93.24" gradientTransform="matrix(0.87, -0.5, 0, 1.15, 80.31, 273.56)" xlink:href="#linear-gradient"/><linearGradient id="linear-gradient-116" x1="114.05" y1="-95.78" x2="117.42" y2="-93.24" gradientTransform="matrix(0.87, -0.5, 0, 1.15, 80.31, 273.56)" xlink:href="#linear-gradient"/><linearGradient id="linear-gradient-117" x1="101.45" y1="-92.36" x2="104.82" y2="-89.81" gradientTransform="matrix(0.87, -0.5, 0, 1.15, 80.31, 273.56)" xlink:href="#linear-gradient"/><linearGradient id="linear-gradient-118" x1="105.65" y1="-92.36" x2="109.02" y2="-89.81" gradientTransform="matrix(0.87, -0.5, 0, 1.15, 80.31, 273.56)" xlink:href="#linear-gradient"/><linearGradient id="linear-gradient-119" x1="109.85" y1="-92.36" x2="113.22" y2="-89.81" gradientTransform="matrix(0.87, -0.5, 0, 1.15, 80.31, 273.56)" xlink:href="#linear-gradient"/><linearGradient id="linear-gradient-120" x1="114.05" y1="-92.36" x2="117.42" y2="-89.81" gradientTransform="matrix(0.87, -0.5, 0, 1.15, 80.31, 273.56)" xlink:href="#linear-gradient"/><linearGradient id="linear-gradient-121" x1="151.45" y1="312.13" x2="158.16" y2="312.13" xlink:href="#linear-gradient-13"/><linearGradient id="linear-gradient-122" x1="112.18" y1="319.08" x2="140.35" y2="319.08" xlink:href="#linear-gradient-13"/><linearGradient id="linear-gradient-123" x1="85.77" y1="333.07" x2="166.76" y2="333.07" xlink:href="#linear-gradient-13"/><linearGradient id="linear-gradient-124" x1="85.81" y1="316.46" x2="166.76" y2="316.46" xlink:href="#linear-gradient-14"/><linearGradient id="linear-gradient-125" x1="184.68" y1="349.54" x2="188.39" y2="349.54" xlink:href="#linear-gradient-13"/><linearGradient id="linear-gradient-126" x1="162.94" y1="353.39" x2="178.53" y2="353.39" xlink:href="#linear-gradient-13"/><linearGradient id="linear-gradient-127" x1="148.32" y1="361.13" x2="193.15" y2="361.13" xlink:href="#linear-gradient-13"/><linearGradient id="linear-gradient-128" x1="148.34" y1="351.94" x2="193.15" y2="351.94" xlink:href="#linear-gradient-14"/><linearGradient id="linear-gradient-129" x1="92.59" y1="301.72" x2="113.09" y2="301.72" xlink:href="#linear-gradient-13"/><linearGradient id="linear-gradient-130" x1="77.75" y1="265.09" x2="145.83" y2="265.09" xlink:href="#linear-gradient-13"/><linearGradient id="linear-gradient-131" x1="291.33" y1="197.1" x2="369.2" y2="197.1" xlink:href="#linear-gradient-14"/><linearGradient id="linear-gradient-132" x1="291.37" y1="179.4" x2="369.2" y2="179.4" gradientTransform="translate(508.75 -151.39) rotate(89.84)" xlink:href="#linear-gradient-13"/><linearGradient id="linear-gradient-133" x1="162.92" y1="65.78" x2="208.68" y2="111.55" gradientTransform="matrix(1, -0.58, 0.87, 0.5, 58.07, 241.54)" xlink:href="#linear-gradient"/><linearGradient id="linear-gradient-134" x1="188.38" y1="403.4" x2="309.91" y2="403.4" xlink:href="#linear-gradient-13"/><linearGradient id="linear-gradient-135" x1="188.4" y1="388.24" x2="309.91" y2="388.24" xlink:href="#linear-gradient-14"/><linearGradient id="linear-gradient-136" x1="193.26" y1="387.83" x2="304.77" y2="387.83" xlink:href="#linear-gradient-13"/><linearGradient id="linear-gradient-137" x1="264.2" y1="39.79" x2="264.2" y2="198.08" xlink:href="#linear-gradient-13"/><linearGradient id="linear-gradient-138" x1="226.62" y1="39.79" x2="226.62" y2="198.08" xlink:href="#linear-gradient-13"/><linearGradient id="linear-gradient-139" x1="207.41" y1="111.73" x2="320.67" y2="224.99" xlink:href="#linear-gradient-14"/><linearGradient id="linear-gradient-140" x1="278.46" y1="55.29" x2="278.46" y2="188.86" xlink:href="#linear-gradient-13"/><linearGradient id="linear-gradient-141" x1="246.75" y1="55.29" x2="246.75" y2="188.86" xlink:href="#linear-gradient-13"/><linearGradient id="linear-gradient-142" x1="229.6" y1="130.31" x2="399.31" y2="201.72" xlink:href="#linear-gradient-14"/><linearGradient id="linear-gradient-143" x1="682.39" y1="182.4" x2="828.66" y2="182.4" gradientTransform="matrix(-0.87, 0.5, -0.5, 1.44, 1134.3, -404.02)" gradientUnits="userSpaceOnUse"><stop offset="0.04" stop-color="#e3ebff"/><stop offset="1" stop-color="#dce4f9"/></linearGradient><linearGradient id="linear-gradient-144" x1="620.33" y1="195.71" x2="693.71" y2="305.78" gradientTransform="matrix(-1, 0, 0, 1, 1015.25, 0)" xlink:href="#linear-gradient-13"/><linearGradient id="linear-gradient-145" x1="596.06" y1="144.83" x2="610.13" y2="158.9" gradientTransform="matrix(-0.87, 0.5, 0, 1.15, 950.75, -298.25)" xlink:href="#linear-gradient"/><linearGradient id="linear-gradient-146" x1="604.01" y1="144.83" x2="618.08" y2="158.9" gradientTransform="matrix(-0.87, 0.5, 0, 1.15, 950.75, -298.25)" xlink:href="#linear-gradient"/><linearGradient id="linear-gradient-147" x1="611.97" y1="144.83" x2="626.03" y2="158.9" gradientTransform="matrix(-0.87, 0.5, 0, 1.15, 950.75, -298.25)" xlink:href="#linear-gradient"/><linearGradient id="linear-gradient-148" x1="301.3" y1="350.05" x2="473.42" y2="350.05" xlink:href="#linear-gradient-14"/><linearGradient id="linear-gradient-149" x1="303.52" y1="320.1" x2="512.39" y2="412.6" xlink:href="#linear-gradient-14"/><linearGradient id="linear-gradient-150" x1="296.51" y1="343.42" x2="367.18" y2="343.42" xlink:href="#linear-gradient-13"/><linearGradient id="linear-gradient-151" x1="270.62" y1="212.87" x2="394.92" y2="330.35" xlink:href="#linear-gradient-14"/><linearGradient id="linear-gradient-152" x1="277.81" y1="219.67" x2="391.46" y2="327.07" xlink:href="#linear-gradient-13"/><linearGradient id="linear-gradient-153" x1="296.74" y1="251.93" x2="407.75" y2="251.93" xlink:href="#linear-gradient-14"/><linearGradient id="linear-gradient-154" x1="350.18" y1="312.11" x2="359.71" y2="321.12" gradientTransform="matrix(1, -0.58, 0.87, 0.5, -312.32, 408.69)" xlink:href="#linear-gradient-13"/><linearGradient id="linear-gradient-155" x1="356.41" y1="312.11" x2="365.94" y2="321.12" gradientTransform="matrix(1, -0.58, 0.87, 0.5, -312.32, 408.69)" xlink:href="#linear-gradient-13"/><linearGradient id="linear-gradient-156" x1="362.64" y1="312.11" x2="372.17" y2="321.12" gradientTransform="matrix(1, -0.58, 0.87, 0.5, -312.32, 408.69)" xlink:href="#linear-gradient-13"/><linearGradient id="linear-gradient-157" x1="368.87" y1="312.11" x2="378.4" y2="321.12" gradientTransform="matrix(1, -0.58, 0.87, 0.5, -312.32, 408.69)" xlink:href="#linear-gradient-13"/><linearGradient id="linear-gradient-158" x1="375.1" y1="312.11" x2="384.63" y2="321.12" gradientTransform="matrix(1, -0.58, 0.87, 0.5, -312.32, 408.69)" xlink:href="#linear-gradient-13"/><linearGradient id="linear-gradient-159" x1="381.33" y1="312.11" x2="390.86" y2="321.12" gradientTransform="matrix(1, -0.58, 0.87, 0.5, -312.32, 408.69)" xlink:href="#linear-gradient-13"/><linearGradient id="linear-gradient-160" x1="387.56" y1="312.11" x2="397.09" y2="321.12" gradientTransform="matrix(1, -0.58, 0.87, 0.5, -312.32, 408.69)" xlink:href="#linear-gradient-13"/><linearGradient id="linear-gradient-161" x1="393.79" y1="312.11" x2="403.32" y2="321.12" gradientTransform="matrix(1, -0.58, 0.87, 0.5, -312.32, 408.69)" xlink:href="#linear-gradient-13"/><linearGradient id="linear-gradient-162" x1="400.02" y1="312.11" x2="409.55" y2="321.12" gradientTransform="matrix(1, -0.58, 0.87, 0.5, -312.32, 408.69)" xlink:href="#linear-gradient-13"/><linearGradient id="linear-gradient-163" x1="406.25" y1="312.11" x2="415.78" y2="321.12" gradientTransform="matrix(1, -0.58, 0.87, 0.5, -312.32, 408.69)" xlink:href="#linear-gradient-13"/><linearGradient id="linear-gradient-164" x1="412.48" y1="312.11" x2="422.01" y2="321.12" gradientTransform="matrix(1, -0.58, 0.87, 0.5, -312.32, 408.69)" xlink:href="#linear-gradient-13"/><linearGradient id="linear-gradient-165" x1="418.71" y1="312.11" x2="428.24" y2="321.12" gradientTransform="matrix(1, -0.58, 0.87, 0.5, -312.32, 408.69)" xlink:href="#linear-gradient-13"/><linearGradient id="linear-gradient-166" x1="424.94" y1="312.11" x2="434.47" y2="321.12" gradientTransform="matrix(1, -0.58, 0.87, 0.5, -312.32, 408.69)" xlink:href="#linear-gradient-13"/><linearGradient id="linear-gradient-167" x1="431.17" y1="312.11" x2="440.7" y2="321.12" gradientTransform="matrix(1, -0.58, 0.87, 0.5, -312.32, 408.69)" xlink:href="#linear-gradient-13"/><linearGradient id="linear-gradient-168" x1="437.4" y1="312.11" x2="446.93" y2="321.12" gradientTransform="matrix(1, -0.58, 0.87, 0.5, -312.32, 408.69)" xlink:href="#linear-gradient-13"/><linearGradient id="linear-gradient-169" x1="356.41" y1="320.26" x2="365.94" y2="329.27" gradientTransform="matrix(1, -0.58, 0.87, 0.5, -312.32, 408.69)" xlink:href="#linear-gradient-13"/><linearGradient id="linear-gradient-170" x1="362.64" y1="320.26" x2="372.17" y2="329.27" gradientTransform="matrix(1, -0.58, 0.87, 0.5, -312.32, 408.69)" xlink:href="#linear-gradient-13"/><linearGradient id="linear-gradient-171" x1="368.87" y1="320.26" x2="378.4" y2="329.27" gradientTransform="matrix(1, -0.58, 0.87, 0.5, -312.32, 408.69)" xlink:href="#linear-gradient-13"/><linearGradient id="linear-gradient-172" x1="375.1" y1="320.26" x2="384.63" y2="329.27" gradientTransform="matrix(1, -0.58, 0.87, 0.5, -312.32, 408.69)" xlink:href="#linear-gradient-13"/><linearGradient id="linear-gradient-173" x1="381.33" y1="320.26" x2="390.86" y2="329.27" gradientTransform="matrix(1, -0.58, 0.87, 0.5, -312.32, 408.69)" xlink:href="#linear-gradient-13"/><linearGradient id="linear-gradient-174" x1="387.56" y1="320.26" x2="397.09" y2="329.27" gradientTransform="matrix(1, -0.58, 0.87, 0.5, -312.32, 408.69)" xlink:href="#linear-gradient-13"/><linearGradient id="linear-gradient-175" x1="393.79" y1="320.26" x2="403.32" y2="329.27" gradientTransform="matrix(1, -0.58, 0.87, 0.5, -312.32, 408.69)" xlink:href="#linear-gradient-13"/><linearGradient id="linear-gradient-176" x1="400.02" y1="320.26" x2="409.55" y2="329.27" gradientTransform="matrix(1, -0.58, 0.87, 0.5, -312.32, 408.69)" xlink:href="#linear-gradient-13"/><linearGradient id="linear-gradient-177" x1="406.25" y1="320.26" x2="415.78" y2="329.27" gradientTransform="matrix(1, -0.58, 0.87, 0.5, -312.32, 408.69)" xlink:href="#linear-gradient-13"/><linearGradient id="linear-gradient-178" x1="412.48" y1="320.26" x2="422.01" y2="329.27" gradientTransform="matrix(1, -0.58, 0.87, 0.5, -312.32, 408.69)" xlink:href="#linear-gradient-13"/><linearGradient id="linear-gradient-179" x1="418.71" y1="320.26" x2="428.24" y2="329.27" gradientTransform="matrix(1, -0.58, 0.87, 0.5, -312.32, 408.69)" xlink:href="#linear-gradient-13"/><linearGradient id="linear-gradient-180" x1="424.94" y1="320.26" x2="434.47" y2="329.27" gradientTransform="matrix(1, -0.58, 0.87, 0.5, -312.32, 408.69)" xlink:href="#linear-gradient-13"/><linearGradient id="linear-gradient-181" x1="431.17" y1="320.26" x2="440.7" y2="329.27" gradientTransform="matrix(1, -0.58, 0.87, 0.5, -312.32, 408.69)" xlink:href="#linear-gradient-13"/><linearGradient id="linear-gradient-182" x1="437.4" y1="320.26" x2="446.93" y2="329.27" gradientTransform="matrix(1, -0.58, 0.87, 0.5, -312.32, 408.69)" xlink:href="#linear-gradient-13"/><linearGradient id="linear-gradient-183" x1="342.17" y1="316.77" x2="366" y2="339.29" gradientTransform="matrix(1, -0.58, 0.87, 0.5, -312.32, 408.69)" xlink:href="#linear-gradient-13"/><linearGradient id="linear-gradient-184" x1="362.64" y1="328.41" x2="372.17" y2="337.42" gradientTransform="matrix(1, -0.58, 0.87, 0.5, -312.32, 408.69)" xlink:href="#linear-gradient-13"/><linearGradient id="linear-gradient-185" x1="368.87" y1="328.41" x2="378.4" y2="337.42" gradientTransform="matrix(1, -0.58, 0.87, 0.5, -312.32, 408.69)" xlink:href="#linear-gradient-13"/><linearGradient id="linear-gradient-186" x1="375.1" y1="328.41" x2="384.63" y2="337.42" gradientTransform="matrix(1, -0.58, 0.87, 0.5, -312.32, 408.69)" xlink:href="#linear-gradient-13"/><linearGradient id="linear-gradient-187" x1="381.33" y1="328.41" x2="390.86" y2="337.42" gradientTransform="matrix(1, -0.58, 0.87, 0.5, -312.32, 408.69)" xlink:href="#linear-gradient-13"/><linearGradient id="linear-gradient-188" x1="387.56" y1="328.41" x2="397.09" y2="337.42" gradientTransform="matrix(1, -0.58, 0.87, 0.5, -312.32, 408.69)" xlink:href="#linear-gradient-13"/><linearGradient id="linear-gradient-189" x1="393.79" y1="328.41" x2="403.32" y2="337.42" gradientTransform="matrix(1, -0.58, 0.87, 0.5, -312.32, 408.69)" xlink:href="#linear-gradient-13"/><linearGradient id="linear-gradient-190" x1="400.02" y1="328.41" x2="409.55" y2="337.42" gradientTransform="matrix(1, -0.58, 0.87, 0.5, -312.32, 408.69)" xlink:href="#linear-gradient-13"/><linearGradient id="linear-gradient-191" x1="406.25" y1="328.41" x2="415.78" y2="337.42" gradientTransform="matrix(1, -0.58, 0.87, 0.5, -312.32, 408.69)" xlink:href="#linear-gradient-13"/><linearGradient id="linear-gradient-192" x1="412.48" y1="328.41" x2="422.01" y2="337.42" gradientTransform="matrix(1, -0.58, 0.87, 0.5, -312.32, 408.69)" xlink:href="#linear-gradient-13"/><linearGradient id="linear-gradient-193" x1="418.71" y1="328.41" x2="428.24" y2="337.42" gradientTransform="matrix(1, -0.58, 0.87, 0.5, -312.32, 408.69)" xlink:href="#linear-gradient-13"/><linearGradient id="linear-gradient-194" x1="424.94" y1="328.41" x2="434.47" y2="337.42" gradientTransform="matrix(1, -0.58, 0.87, 0.5, -312.32, 408.69)" xlink:href="#linear-gradient-13"/><linearGradient id="linear-gradient-195" x1="431.17" y1="328.41" x2="440.7" y2="337.42" gradientTransform="matrix(1, -0.58, 0.87, 0.5, -312.32, 408.69)" xlink:href="#linear-gradient-13"/><linearGradient id="linear-gradient-196" x1="437.4" y1="328.41" x2="446.93" y2="337.42" gradientTransform="matrix(1, -0.58, 0.87, 0.5, -312.32, 408.69)" xlink:href="#linear-gradient-13"/><linearGradient id="linear-gradient-197" x1="350.18" y1="336.56" x2="359.71" y2="345.57" gradientTransform="matrix(1, -0.58, 0.87, 0.5, -312.32, 408.69)" xlink:href="#linear-gradient-13"/><linearGradient id="linear-gradient-198" x1="356.41" y1="336.56" x2="365.94" y2="345.57" gradientTransform="matrix(1, -0.58, 0.87, 0.5, -312.32, 408.69)" xlink:href="#linear-gradient-13"/><linearGradient id="linear-gradient-199" x1="362.64" y1="336.56" x2="372.17" y2="345.57" gradientTransform="matrix(1, -0.58, 0.87, 0.5, -312.32, 408.69)" xlink:href="#linear-gradient-13"/><linearGradient id="linear-gradient-200" x1="368.87" y1="336.56" x2="378.4" y2="345.57" gradientTransform="matrix(1, -0.58, 0.87, 0.5, -312.32, 408.69)" xlink:href="#linear-gradient-13"/><linearGradient id="linear-gradient-201" x1="375.1" y1="336.56" x2="384.63" y2="345.57" gradientTransform="matrix(1, -0.58, 0.87, 0.5, -312.32, 408.69)" xlink:href="#linear-gradient-13"/><linearGradient id="linear-gradient-202" x1="381.33" y1="336.56" x2="390.86" y2="345.57" gradientTransform="matrix(1, -0.58, 0.87, 0.5, -312.32, 408.69)" xlink:href="#linear-gradient-13"/><linearGradient id="linear-gradient-203" x1="387.56" y1="336.56" x2="397.09" y2="345.57" gradientTransform="matrix(1, -0.58, 0.87, 0.5, -312.32, 408.69)" xlink:href="#linear-gradient-13"/><linearGradient id="linear-gradient-204" x1="393.79" y1="336.56" x2="403.32" y2="345.57" gradientTransform="matrix(1, -0.58, 0.87, 0.5, -312.32, 408.69)" xlink:href="#linear-gradient-13"/><linearGradient id="linear-gradient-205" x1="400.02" y1="336.56" x2="409.55" y2="345.57" gradientTransform="matrix(1, -0.58, 0.87, 0.5, -312.32, 408.69)" xlink:href="#linear-gradient-13"/><linearGradient id="linear-gradient-206" x1="406.25" y1="336.56" x2="415.78" y2="345.57" gradientTransform="matrix(1, -0.58, 0.87, 0.5, -312.32, 408.69)" xlink:href="#linear-gradient-13"/><linearGradient id="linear-gradient-207" x1="412.48" y1="336.56" x2="422.01" y2="345.57" gradientTransform="matrix(1, -0.58, 0.87, 0.5, -312.32, 408.69)" xlink:href="#linear-gradient-13"/><linearGradient id="linear-gradient-208" x1="418.71" y1="336.56" x2="428.24" y2="345.57" gradientTransform="matrix(1, -0.58, 0.87, 0.5, -312.32, 408.69)" xlink:href="#linear-gradient-13"/><linearGradient id="linear-gradient-209" x1="424.94" y1="336.56" x2="434.47" y2="345.57" gradientTransform="matrix(1, -0.58, 0.87, 0.5, -312.32, 408.69)" xlink:href="#linear-gradient-13"/><linearGradient id="linear-gradient-210" x1="431.17" y1="336.56" x2="440.7" y2="345.57" gradientTransform="matrix(1, -0.58, 0.87, 0.5, -312.32, 408.69)" xlink:href="#linear-gradient-13"/><linearGradient id="linear-gradient-211" x1="437.4" y1="336.56" x2="446.93" y2="345.57" gradientTransform="matrix(1, -0.58, 0.87, 0.5, -312.32, 408.69)" xlink:href="#linear-gradient-13"/><linearGradient id="linear-gradient-212" x1="350.18" y1="344.71" x2="359.71" y2="353.72" gradientTransform="matrix(1, -0.58, 0.87, 0.5, -312.32, 408.69)" xlink:href="#linear-gradient-13"/><linearGradient id="linear-gradient-213" x1="356.41" y1="344.71" x2="365.94" y2="353.72" gradientTransform="matrix(1, -0.58, 0.87, 0.5, -312.32, 408.69)" xlink:href="#linear-gradient-13"/><linearGradient id="linear-gradient-214" x1="362.64" y1="344.71" x2="372.17" y2="353.72" gradientTransform="matrix(1, -0.58, 0.87, 0.5, -312.32, 408.69)" xlink:href="#linear-gradient-13"/><linearGradient id="linear-gradient-215" x1="368.87" y1="344.71" x2="378.4" y2="353.72" gradientTransform="matrix(1, -0.58, 0.87, 0.5, -312.32, 408.69)" xlink:href="#linear-gradient-13"/><linearGradient id="linear-gradient-216" x1="367.89" y1="320.24" x2="415.79" y2="365.5" gradientTransform="matrix(1, -0.58, 0.87, 0.5, -312.32, 408.69)" xlink:href="#linear-gradient-13"/><linearGradient id="linear-gradient-217" x1="418.71" y1="344.71" x2="428.24" y2="353.72" gradientTransform="matrix(1, -0.58, 0.87, 0.5, -312.32, 408.69)" xlink:href="#linear-gradient-13"/><linearGradient id="linear-gradient-218" x1="424.94" y1="344.71" x2="434.47" y2="353.72" gradientTransform="matrix(1, -0.58, 0.87, 0.5, -312.32, 408.69)" xlink:href="#linear-gradient-13"/><linearGradient id="linear-gradient-219" x1="431.17" y1="344.71" x2="440.7" y2="353.72" gradientTransform="matrix(1, -0.58, 0.87, 0.5, -312.32, 408.69)" xlink:href="#linear-gradient-13"/><linearGradient id="linear-gradient-220" x1="437.4" y1="344.71" x2="446.93" y2="353.72" gradientTransform="matrix(1, -0.58, 0.87, 0.5, -312.32, 408.69)" xlink:href="#linear-gradient-13"/><linearGradient id="linear-gradient-221" x1="238.64" y1="374.59" x2="261.97" y2="374.59" xlink:href="#linear-gradient-14"/><linearGradient id="linear-gradient-222" x1="238.64" y1="370.96" x2="269.52" y2="370.96" xlink:href="#linear-gradient-13"/><linearGradient id="linear-gradient-223" x1="226.77" y1="360.36" x2="273.91" y2="360.36" xlink:href="#linear-gradient-14"/><linearGradient id="linear-gradient-224" x1="226.77" y1="356.73" x2="281.47" y2="356.73" xlink:href="#linear-gradient-13"/><linearGradient id="linear-gradient-225" x1="214.91" y1="346.13" x2="285.86" y2="346.13" xlink:href="#linear-gradient-14"/><linearGradient id="linear-gradient-226" x1="214.91" y1="342.5" x2="293.41" y2="342.5" xlink:href="#linear-gradient-13"/><linearGradient id="linear-gradient-227" x1="231.98" y1="342.36" x2="243.17" y2="391.66" gradientTransform="matrix(-1, 0, 0, 1, 493.81, 0)" xlink:href="#linear-gradient"/><linearGradient id="linear-gradient-228" x1="229.47" y1="374.4" x2="273.8" y2="421.63" gradientTransform="matrix(-1, 0, 0, 1, 493.81, 0)" xlink:href="#linear-gradient"/><linearGradient id="linear-gradient-229" x1="96.45" y1="376.48" x2="135.41" y2="319.49" xlink:href="#linear-gradient-13"/><linearGradient id="linear-gradient-230" x1="149.53" y1="368.4" x2="129.73" y2="395.63" xlink:href="#linear-gradient-14"/><linearGradient id="linear-gradient-231" x1="164.57" y1="399.07" x2="173.97" y2="399.07" xlink:href="#linear-gradient-13"/><linearGradient id="linear-gradient-232" x1="102.64" y1="352.59" x2="99.97" y2="364.92" xlink:href="#linear-gradient"/><linearGradient id="linear-gradient-233" x1="108.99" y1="361.53" x2="197.39" y2="421.56" gradientUnits="userSpaceOnUse"><stop offset="0" stop-color="#e3ebff"/><stop offset="1" stop-color="#978ef0"/></linearGradient><linearGradient id="linear-gradient-234" x1="32.66" y1="427.06" x2="160.73" y2="427.06" xlink:href="#linear-gradient-14"/><linearGradient id="linear-gradient-235" x1="108.17" y1="446.58" x2="35.93" y2="206.73" xlink:href="#linear-gradient-13"/><linearGradient id="linear-gradient-236" x1="81.95" y1="409.85" x2="66.48" y2="358.51" gradientTransform="matrix(1, -0.58, 0.87, 0.5, -352.17, 241.67)" xlink:href="#linear-gradient"/><linearGradient id="linear-gradient-237" x1="81.95" y1="418.42" x2="66.48" y2="367.08" gradientTransform="matrix(1, -0.58, 0.87, 0.5, -352.17, 241.67)" xlink:href="#linear-gradient"/><linearGradient id="linear-gradient-238" x1="81.95" y1="426.98" x2="66.48" y2="375.64" gradientTransform="matrix(1, -0.58, 0.87, 0.5, -352.17, 241.67)" xlink:href="#linear-gradient"/><linearGradient id="linear-gradient-239" x1="81.95" y1="435.55" x2="66.48" y2="384.21" gradientTransform="matrix(1, -0.58, 0.87, 0.5, -352.17, 241.67)" xlink:href="#linear-gradient"/><linearGradient id="linear-gradient-240" x1="81.95" y1="444.11" x2="66.48" y2="392.78" gradientTransform="matrix(1, -0.58, 0.87, 0.5, -352.17, 241.67)" xlink:href="#linear-gradient"/><linearGradient id="linear-gradient-241" x1="81.95" y1="452.68" x2="66.49" y2="401.34" gradientTransform="matrix(1, -0.58, 0.87, 0.5, -352.17, 241.67)" xlink:href="#linear-gradient"/><linearGradient id="linear-gradient-242" x1="81.95" y1="461.24" x2="66.49" y2="409.91" gradientTransform="matrix(1, -0.58, 0.87, 0.5, -352.17, 241.67)" xlink:href="#linear-gradient"/></defs><g id="OBJECTS"><g class="cls-1"><path class="cls-2" d="M338.85,142.81l0,6.52c0,3.11-2.05,6.22-6.14,8.59-8.22,4.78-21.6,4.78-29.88,0-4.17-2.4-6.25-5.56-6.24-8.71l0-6.52c0,3.15,2.07,6.31,6.24,8.71,8.28,4.78,21.65,4.78,29.88,0C336.8,149,338.84,145.92,338.85,142.81Z"/><ellipse class="cls-3" cx="317.72" cy="142.75" rx="12.24" ry="21.13" transform="translate(174.07 460.06) rotate(-89.84)"/></g><g class="cls-1"><path class="cls-4" d="M338.85,131.68l0,6.52c0,3.12-2.05,6.22-6.14,8.6-8.22,4.78-21.6,4.78-29.88,0-4.17-2.41-6.25-5.56-6.24-8.72l0-6.52c0,3.15,2.07,6.31,6.24,8.72,8.28,4.78,21.65,4.78,29.88,0C336.8,137.9,338.84,134.79,338.85,131.68Z"/><ellipse class="cls-5" cx="317.72" cy="131.62" rx="12.24" ry="21.13" transform="translate(185.2 448.97) rotate(-89.84)"/></g><g class="cls-1"><path class="cls-6" d="M338.85,120.56l0,6.52c0,3.11-2.05,6.22-6.14,8.6-8.22,4.78-21.6,4.78-29.88,0-4.17-2.41-6.25-5.57-6.24-8.72l0-6.52c0,3.15,2.07,6.31,6.24,8.71,8.28,4.78,21.65,4.78,29.88,0C336.8,126.78,338.84,123.67,338.85,120.56Z"/><ellipse class="cls-7" cx="317.72" cy="120.5" rx="12.24" ry="21.13" transform="translate(196.32 437.88) rotate(-89.84)"/></g><g class="cls-1"><path class="cls-8" d="M384.63,154.82l0,6.52c0,3.11-2.05,6.22-6.14,8.6-8.23,4.78-21.6,4.78-29.89,0-4.16-2.41-6.24-5.57-6.23-8.72V154.7c0,3.15,2.08,6.31,6.24,8.72,8.28,4.78,21.66,4.78,29.89,0C382.58,161,384.62,157.93,384.63,154.82Z"/><path class="cls-9" d="M378.39,146.1c8.28,4.79,8.33,12.53.1,17.32s-21.61,4.78-29.89,0-8.32-12.53-.09-17.32S370.11,141.32,378.39,146.1Z"/></g><g class="cls-1"><path class="cls-10" d="M384.63,143.7l0,6.52c0,3.11-2.05,6.22-6.14,8.59-8.23,4.78-21.6,4.78-29.89,0-4.16-2.4-6.24-5.56-6.23-8.71v-6.52c0,3.15,2.08,6.31,6.24,8.71,8.28,4.78,21.66,4.78,29.89,0C382.58,149.92,384.62,146.81,384.63,143.7Z"/><path class="cls-11" d="M378.39,135c8.28,4.78,8.33,12.53.1,17.31s-21.61,4.78-29.89,0-8.32-12.53-.09-17.31S370.11,130.2,378.39,135Z"/></g><g class="cls-1"><path class="cls-12" d="M384.63,132.57l0,6.52c0,3.12-2.05,6.22-6.14,8.6-8.23,4.78-21.6,4.78-29.89,0-4.16-2.41-6.24-5.56-6.23-8.72v-6.52c0,3.16,2.08,6.31,6.24,8.72,8.28,4.78,21.66,4.78,29.89,0C382.58,138.79,384.62,135.69,384.63,132.57Z"/><ellipse class="cls-13" cx="363.5" cy="132.51" rx="12.24" ry="21.13" transform="translate(229.95 495.63) rotate(-89.84)"/></g><line class="cls-14" x1="144.2" y1="329.07" x2="233.35" y2="384.69"/><line class="cls-14" x1="272.48" y1="395.27" x2="350.04" y2="349.84"/><line class="cls-14" x1="155.26" y1="297.95" x2="304.73" y2="204.36"/><line class="cls-15" x1="151.6" y1="194.85" x2="151.6" y2="194.85"/><line class="cls-16" x1="156.35" y1="197.87" x2="391.21" y2="347.32"/><line class="cls-15" x1="393.58" y1="348.83" x2="393.58" y2="348.83"/><path class="cls-17" d="M323.2,247.18l-80.39,46.71a14.92,14.92,0,0,1-13.58,0l-80.91-46.71c-1.9-1.1-2.84-2.53-2.84-4l0,13c0,1.43.95,2.87,2.84,4l80.92,46.72a15,15,0,0,0,13.57,0l80.39-46.72c1.86-1.08,2.79-2.49,2.79-3.9l0-13C326,244.69,325.06,246.1,323.2,247.18Z"/><path class="cls-18" d="M323.16,239.31c3.76,2.17,3.78,5.69,0,7.87l-80.39,46.71a14.92,14.92,0,0,1-13.58,0l-80.91-46.71c-3.77-2.18-3.79-5.7,0-7.87l80.39-46.72a15,15,0,0,1,13.58,0Z"/><path class="cls-19" d="M301.92,242.58l-60.17,35a11.25,11.25,0,0,1-10.17,0l-60.57-35a3.61,3.61,0,0,1-2.12-3l0,5.31a3.61,3.61,0,0,0,2.13,3l60.56,35a11.25,11.25,0,0,0,10.17,0l60.17-35A3.57,3.57,0,0,0,304,245l0-5.31A3.57,3.57,0,0,1,301.92,242.58Z"/><path class="cls-20" d="M301.89,236.69c2.81,1.63,2.83,4.26,0,5.89l-60.17,35a11.25,11.25,0,0,1-10.17,0l-60.57-35c-2.81-1.63-2.83-4.26,0-5.89l60.18-35a11.23,11.23,0,0,1,10.16,0Z"/><text class="cls-21" transform="matrix(0.86, -0.5, 0.87, 0.5, 214.34, 259.45)">SaaS</text><g class="cls-1"><polygon class="cls-22" points="186.31 164.68 123.56 201.15 60.4 164.68 123.15 128.22 186.31 164.68"/><polygon class="cls-23" points="186.31 164.68 186.23 194.59 123.47 231.06 123.56 201.15 186.31 164.68"/><polygon class="cls-24" points="163.38 180.41 125.63 202.34 125.56 227.44 163.38 205.47 163.38 180.41"/><polygon class="cls-25" points="165.11 179.4 165.11 204.46 184.15 193.4 184.22 168.29 165.11 179.4"/><polygon class="cls-26" points="123.56 201.15 123.47 231.06 60.32 194.6 60.4 164.68 123.56 201.15"/></g><polygon class="cls-27" points="139.95 200.11 131.38 205.06 131.38 206.22 139.95 201.28 139.95 200.11"/><polygon class="cls-28" points="145.84 196.71 140.45 199.82 140.45 200.99 145.84 197.87 145.84 196.71"/><polygon class="cls-29" points="154.75 191.57 146.34 196.42 146.34 197.59 154.75 192.73 154.75 191.57"/><polygon class="cls-30" points="155.24 191.28 155.24 192.45 156.8 191.55 156.8 190.38 155.24 191.28"/><path class="cls-31" d="M136,206.7v-.06l-4.61,2.66v1.17l4.61-2.66Z"/><path class="cls-32" d="M136.49,206.36a.43.43,0,0,1,0,0v1.11L149,200.31v-1.17Z"/><polygon class="cls-33" points="149.48 198.85 149.48 200.02 156.8 195.8 156.8 194.63 149.48 198.85"/><polygon class="cls-34" points="143.5 206.56 140.91 208.05 140.91 209.22 143.5 207.73 143.5 206.56"/><polygon class="cls-35" points="143.99 206.27 143.99 207.44 156.8 200.04 156.8 198.88 143.99 206.27"/><polygon class="cls-36" points="140.42 208.34 131.38 213.55 131.38 214.72 140.42 209.5 140.42 208.34"/><path class="cls-37" d="M150.86,206.56,131.39,217.8V219l19.46-11.24C150.85,207.34,150.86,207,150.86,206.56Z"/><path class="cls-38" d="M151.35,206.27c0,.39,0,.78,0,1.18l5.46-3.16v-1.16Z"/><path class="cls-39" d="M170.36,183.18a1.39,1.39,0,0,1-.64,1.1c-.35.21-.64,0-.64-.36a1.43,1.43,0,0,1,.64-1.11C170.08,182.61,170.36,182.77,170.36,183.18Z"/><path class="cls-40" d="M174,181.08a1.41,1.41,0,0,1-.64,1.1c-.35.21-.64,0-.64-.36a1.43,1.43,0,0,1,.64-1.11C173.71,180.51,174,180.67,174,181.08Z"/><path class="cls-41" d="M177.64,179a1.41,1.41,0,0,1-.64,1.1c-.36.21-.64,0-.64-.36a1.41,1.41,0,0,1,.64-1.11C177.35,178.41,177.64,178.57,177.64,179Z"/><path class="cls-42" d="M181.28,176.88a1.4,1.4,0,0,1-.65,1.1c-.35.21-.64,0-.64-.36a1.43,1.43,0,0,1,.64-1.11C181,176.31,181.28,176.47,181.28,176.88Z"/><path class="cls-43" d="M170.36,187.13a1.41,1.41,0,0,1-.64,1.11c-.35.2-.64,0-.64-.37a1.41,1.41,0,0,1,.64-1.1C170.08,186.56,170.36,186.73,170.36,187.13Z"/><path class="cls-44" d="M174,185a1.43,1.43,0,0,1-.64,1.11c-.35.2-.64,0-.64-.37a1.41,1.41,0,0,1,.64-1.1C173.71,184.46,174,184.63,174,185Z"/><path class="cls-45" d="M177.64,182.93A1.43,1.43,0,0,1,177,184c-.36.2-.64,0-.64-.37a1.39,1.39,0,0,1,.64-1.1C177.35,182.36,177.64,182.53,177.64,182.93Z"/><path class="cls-46" d="M181.28,180.83a1.42,1.42,0,0,1-.65,1.11c-.35.2-.64,0-.64-.37a1.41,1.41,0,0,1,.64-1.1C181,180.26,181.28,180.43,181.28,180.83Z"/><path class="cls-47" d="M170.36,191.09a1.39,1.39,0,0,1-.64,1.1c-.35.21-.64,0-.64-.36a1.43,1.43,0,0,1,.64-1.11C170.08,190.52,170.36,190.68,170.36,191.09Z"/><path class="cls-48" d="M174,189a1.41,1.41,0,0,1-.64,1.1c-.35.21-.64,0-.64-.36a1.43,1.43,0,0,1,.64-1.11C173.71,188.42,174,188.58,174,189Z"/><path class="cls-49" d="M177.64,186.89A1.41,1.41,0,0,1,177,188c-.36.21-.64,0-.64-.36a1.41,1.41,0,0,1,.64-1.11C177.35,186.32,177.64,186.48,177.64,186.89Z"/><path class="cls-50" d="M181.28,184.79a1.4,1.4,0,0,1-.65,1.1c-.35.21-.64,0-.64-.36a1.43,1.43,0,0,1,.64-1.11C181,184.22,181.28,184.38,181.28,184.79Z"/><path class="cls-51" d="M170.36,195a1.41,1.41,0,0,1-.64,1.11c-.35.2-.64,0-.64-.37a1.41,1.41,0,0,1,.64-1.1C170.08,194.47,170.36,194.64,170.36,195Z"/><path class="cls-52" d="M174,192.94a1.43,1.43,0,0,1-.64,1.11c-.35.2-.64,0-.64-.37a1.41,1.41,0,0,1,.64-1.1C173.71,192.37,174,192.54,174,192.94Z"/><path class="cls-53" d="M177.64,190.84A1.43,1.43,0,0,1,177,192c-.36.2-.64,0-.64-.37a1.39,1.39,0,0,1,.64-1.1C177.35,190.27,177.64,190.44,177.64,190.84Z"/><path class="cls-54" d="M181.28,188.74a1.4,1.4,0,0,1-.65,1.11c-.35.2-.64,0-.64-.37a1.41,1.41,0,0,1,.64-1.1C181,188.17,181.28,188.34,181.28,188.74Z"/><polygon class="cls-55" points="177.99 139.24 123.53 170.88 68.72 139.24 123.17 107.59 177.99 139.24"/><polygon class="cls-56" points="177.99 139.24 177.91 165.2 123.45 196.84 123.53 170.88 177.99 139.24"/><polygon class="cls-57" points="123.53 170.88 123.45 196.84 68.64 165.2 68.72 139.24 123.53 170.88"/><g class="cls-1"><polygon class="cls-58" points="186.31 125.4 123.56 161.87 60.4 125.41 123.15 88.94 186.31 125.4"/><polygon class="cls-59" points="186.31 125.4 186.23 155.32 123.47 191.78 123.56 161.87 186.31 125.4"/><polygon class="cls-60" points="163.38 141.13 125.63 163.07 125.56 188.17 163.38 166.19 163.38 141.13"/><polygon class="cls-61" points="165.11 140.13 165.11 165.19 184.15 154.12 184.22 129.02 165.11 140.13"/><polygon class="cls-62" points="123.56 161.87 123.47 191.78 60.32 155.32 60.4 125.41 123.56 161.87"/></g><polygon class="cls-63" points="139.95 160.84 131.38 165.78 131.38 166.94 139.95 162 139.95 160.84"/><polygon class="cls-64" points="145.84 157.43 140.45 160.55 140.45 161.71 145.84 158.6 145.84 157.43"/><polygon class="cls-65" points="154.75 152.29 146.34 157.15 146.34 158.31 154.75 153.46 154.75 152.29"/><polygon class="cls-66" points="155.24 152.01 155.24 153.17 156.8 152.27 156.8 151.11 155.24 152.01"/><path class="cls-67" d="M136,167.42v-.06L131.39,170v1.16l4.61-2.66Z"/><path class="cls-68" d="M136.49,167.08s0,0,0,.06v1.1L149,161v-1.16Z"/><polygon class="cls-69" points="149.48 159.58 149.48 160.74 156.8 156.52 156.8 155.35 149.48 159.58"/><polygon class="cls-70" points="143.5 167.28 140.91 168.78 140.91 169.94 143.5 168.45 143.5 167.28"/><polygon class="cls-71" points="143.99 167 143.99 168.16 156.8 160.77 156.8 159.6 143.99 167"/><polygon class="cls-72" points="140.42 169.06 131.38 174.28 131.38 175.44 140.42 170.23 140.42 169.06"/><path class="cls-73" d="M150.86,167.28l-19.47,11.25v1.16l19.46-11.24C150.85,168.06,150.86,167.67,150.86,167.28Z"/><path class="cls-74" d="M151.35,167c0,.39,0,.78,0,1.17L156.8,165v-1.17Z"/><path class="cls-75" d="M170.36,143.9a1.41,1.41,0,0,1-.64,1.11c-.35.2-.64,0-.64-.37a1.4,1.4,0,0,1,.64-1.1C170.08,143.33,170.36,143.49,170.36,143.9Z"/><path class="cls-76" d="M174,141.8a1.43,1.43,0,0,1-.64,1.11c-.35.2-.64,0-.64-.37a1.4,1.4,0,0,1,.64-1.1C173.71,141.23,174,141.39,174,141.8Z"/><path class="cls-77" d="M177.64,139.7a1.43,1.43,0,0,1-.64,1.11c-.36.2-.64,0-.64-.37a1.37,1.37,0,0,1,.64-1.1C177.35,139.13,177.64,139.29,177.64,139.7Z"/><path class="cls-78" d="M181.28,137.6a1.42,1.42,0,0,1-.65,1.11c-.35.2-.64,0-.64-.37a1.41,1.41,0,0,1,.64-1.1C181,137,181.28,137.19,181.28,137.6Z"/><path class="cls-79" d="M170.36,147.86a1.39,1.39,0,0,1-.64,1.1c-.35.21-.64,0-.64-.36a1.42,1.42,0,0,1,.64-1.11C170.08,147.29,170.36,147.45,170.36,147.86Z"/><path class="cls-80" d="M174,145.76a1.41,1.41,0,0,1-.64,1.1c-.35.21-.64,0-.64-.36a1.43,1.43,0,0,1,.64-1.11C173.71,145.19,174,145.35,174,145.76Z"/><path class="cls-81" d="M177.64,143.66a1.41,1.41,0,0,1-.64,1.1c-.36.21-.64,0-.64-.36a1.41,1.41,0,0,1,.64-1.11C177.35,143.09,177.64,143.25,177.64,143.66Z"/><path class="cls-82" d="M181.28,141.56a1.4,1.4,0,0,1-.65,1.1c-.35.21-.64,0-.64-.36a1.43,1.43,0,0,1,.64-1.11C181,141,181.28,141.15,181.28,141.56Z"/><path class="cls-83" d="M170.36,151.81a1.41,1.41,0,0,1-.64,1.11c-.35.2-.64,0-.64-.37a1.41,1.41,0,0,1,.64-1.1C170.08,151.24,170.36,151.41,170.36,151.81Z"/><path class="cls-84" d="M174,149.71a1.43,1.43,0,0,1-.64,1.11c-.35.2-.64,0-.64-.37a1.41,1.41,0,0,1,.64-1.1C173.71,149.14,174,149.31,174,149.71Z"/><path class="cls-85" d="M177.64,147.61a1.43,1.43,0,0,1-.64,1.11c-.36.2-.64,0-.64-.37a1.39,1.39,0,0,1,.64-1.1C177.35,147,177.64,147.21,177.64,147.61Z"/><path class="cls-86" d="M181.28,145.51a1.42,1.42,0,0,1-.65,1.11c-.35.2-.64,0-.64-.37a1.41,1.41,0,0,1,.64-1.1C181,144.94,181.28,145.11,181.28,145.51Z"/><path class="cls-87" d="M170.36,155.77a1.39,1.39,0,0,1-.64,1.1c-.35.21-.64,0-.64-.36a1.43,1.43,0,0,1,.64-1.11C170.08,155.2,170.36,155.36,170.36,155.77Z"/><path class="cls-88" d="M174,153.67a1.41,1.41,0,0,1-.64,1.1c-.35.21-.64,0-.64-.36a1.43,1.43,0,0,1,.64-1.11C173.71,153.1,174,153.26,174,153.67Z"/><path class="cls-89" d="M177.64,151.57a1.41,1.41,0,0,1-.64,1.1c-.36.21-.64,0-.64-.36a1.41,1.41,0,0,1,.64-1.11C177.35,151,177.64,151.16,177.64,151.57Z"/><path class="cls-90" d="M181.28,149.47a1.4,1.4,0,0,1-.65,1.1c-.35.21-.64,0-.64-.36a1.43,1.43,0,0,1,.64-1.11C181,148.9,181.28,149.06,181.28,149.47Z"/><polygon class="cls-91" points="177.99 99.96 123.53 131.61 68.72 99.96 123.17 68.32 177.99 99.96"/><polygon class="cls-92" points="177.99 99.96 177.91 125.92 123.45 157.57 123.53 131.61 177.99 99.96"/><polygon class="cls-93" points="123.53 131.61 123.45 157.57 68.64 125.92 68.72 99.96 123.53 131.61"/><g class="cls-1"><polygon class="cls-94" points="186.31 86.13 123.56 122.59 60.4 86.13 123.15 49.66 186.31 86.13"/><polygon class="cls-95" points="186.31 86.13 186.23 116.04 123.47 152.51 123.56 122.59 186.31 86.13"/><polygon class="cls-96" points="163.38 101.86 125.63 123.79 125.56 148.89 163.38 126.91 163.38 101.86"/><polygon class="cls-97" points="165.11 100.85 165.11 125.91 184.15 114.84 184.22 89.74 165.11 100.85"/><polygon class="cls-98" points="123.56 122.59 123.47 152.51 60.32 116.04 60.4 86.13 123.56 122.59"/></g><polygon class="cls-99" points="139.95 121.56 131.38 126.5 131.38 127.67 139.95 122.72 139.95 121.56"/><polygon class="cls-100" points="145.84 118.16 140.45 121.27 140.45 122.44 145.84 119.32 145.84 118.16"/><polygon class="cls-101" points="154.75 113.02 146.34 117.87 146.34 119.03 154.75 114.18 154.75 113.02"/><polygon class="cls-102" points="155.24 112.73 155.24 113.89 156.8 112.99 156.8 111.83 155.24 112.73"/><path class="cls-103" d="M136,128.15v-.06l-4.61,2.66v1.17l4.61-2.67Z"/><path class="cls-104" d="M136.49,127.8s0,0,0,.06V129L149,121.75v-1.16Z"/><polygon class="cls-105" points="149.48 120.3 149.48 121.47 156.8 117.24 156.8 116.08 149.48 120.3"/><polygon class="cls-106" points="143.5 128.01 140.91 129.5 140.91 130.66 143.5 129.17 143.5 128.01"/><polygon class="cls-107" points="143.99 127.72 143.99 128.89 156.8 121.49 156.8 120.33 143.99 127.72"/><polygon class="cls-108" points="140.42 129.79 131.38 135 131.38 136.17 140.42 130.95 140.42 129.79"/><path class="cls-109" d="M150.86,128l-19.47,11.24v1.17l19.46-11.24C150.85,128.79,150.86,128.4,150.86,128Z"/><path class="cls-110" d="M151.35,127.72c0,.39,0,.78,0,1.17l5.46-3.15v-1.16Z"/><path class="cls-111" d="M170.36,104.62a1.39,1.39,0,0,1-.64,1.11c-.35.21-.64,0-.64-.37a1.41,1.41,0,0,1,.64-1.1C170.08,104.05,170.36,104.22,170.36,104.62Z"/><path class="cls-112" d="M174,102.52a1.42,1.42,0,0,1-.64,1.11c-.35.21-.64,0-.64-.36a1.42,1.42,0,0,1,.64-1.11C173.71,102,174,102.12,174,102.52Z"/><path class="cls-113" d="M177.64,100.42a1.42,1.42,0,0,1-.64,1.11c-.36.21-.64,0-.64-.36a1.39,1.39,0,0,1,.64-1.11C177.35,99.85,177.64,100,177.64,100.42Z"/><path class="cls-114" d="M181.28,98.32a1.4,1.4,0,0,1-.65,1.11c-.35.21-.64,0-.64-.36a1.42,1.42,0,0,1,.64-1.11C181,97.75,181.28,97.92,181.28,98.32Z"/><path class="cls-115" d="M170.36,108.58a1.41,1.41,0,0,1-.64,1.11c-.35.2-.64,0-.64-.37a1.43,1.43,0,0,1,.64-1.11C170.08,108,170.36,108.17,170.36,108.58Z"/><path class="cls-116" d="M174,106.48a1.43,1.43,0,0,1-.64,1.11c-.35.2-.64,0-.64-.37a1.43,1.43,0,0,1,.64-1.11C173.71,105.91,174,106.07,174,106.48Z"/><path class="cls-117" d="M177.64,104.38a1.43,1.43,0,0,1-.64,1.11c-.36.2-.64,0-.64-.37A1.41,1.41,0,0,1,177,104C177.35,103.81,177.64,104,177.64,104.38Z"/><path class="cls-118" d="M181.28,102.28a1.42,1.42,0,0,1-.65,1.11c-.35.2-.64,0-.64-.37a1.43,1.43,0,0,1,.64-1.11C181,101.71,181.28,101.87,181.28,102.28Z"/><path class="cls-119" d="M170.36,112.54a1.39,1.39,0,0,1-.64,1.1c-.35.21-.64,0-.64-.36a1.42,1.42,0,0,1,.64-1.11C170.08,112,170.36,112.13,170.36,112.54Z"/><path class="cls-120" d="M174,110.44a1.41,1.41,0,0,1-.64,1.1c-.35.21-.64,0-.64-.36a1.42,1.42,0,0,1,.64-1.11C173.71,109.87,174,110,174,110.44Z"/><path class="cls-121" d="M177.64,108.34a1.41,1.41,0,0,1-.64,1.1c-.36.21-.64,0-.64-.36A1.39,1.39,0,0,1,177,108C177.35,107.77,177.64,107.93,177.64,108.34Z"/><path class="cls-122" d="M181.28,106.24a1.4,1.4,0,0,1-.65,1.1c-.35.21-.64,0-.64-.36a1.42,1.42,0,0,1,.64-1.11C181,105.67,181.28,105.83,181.28,106.24Z"/><path class="cls-123" d="M170.36,116.49a1.41,1.41,0,0,1-.64,1.11c-.35.2-.64,0-.64-.37a1.4,1.4,0,0,1,.64-1.1C170.08,115.92,170.36,116.08,170.36,116.49Z"/><path class="cls-124" d="M174,114.39a1.43,1.43,0,0,1-.64,1.11c-.35.2-.64,0-.64-.37a1.4,1.4,0,0,1,.64-1.1C173.71,113.82,174,114,174,114.39Z"/><path class="cls-125" d="M177.64,112.29a1.43,1.43,0,0,1-.64,1.11c-.36.2-.64,0-.64-.37a1.37,1.37,0,0,1,.64-1.1C177.35,111.72,177.64,111.88,177.64,112.29Z"/><path class="cls-126" d="M181.28,110.19a1.42,1.42,0,0,1-.65,1.11c-.35.2-.64,0-.64-.37a1.41,1.41,0,0,1,.64-1.1C181,109.62,181.28,109.78,181.28,110.19Z"/><polygon class="cls-127" points="158.16 301.65 151.49 309.26 151.46 322.62 158.12 315 158.16 301.65"/><path class="cls-128" d="M112.2,329.31l0-.18,0-.21a1.06,1.06,0,0,1,0-.19,1.17,1.17,0,0,1,0-.2,1.05,1.05,0,0,1,.05-.19c0-.07,0-.14.07-.2a1.07,1.07,0,0,1,.07-.19l.09-.21.08-.18.11-.21.1-.17c0-.08.1-.17.15-.25l.1-.15.2-.27a.94.94,0,0,1,.09-.12c.11-.14.23-.29.36-.43l.1-.1.32-.32a1.07,1.07,0,0,1,.16-.14l.2-.18.19-.16.22-.17.21-.16.24-.17.22-.15.26-.16a3.62,3.62,0,0,1,.33-.2c.3-.18.62-.34.94-.5l.26-.12c.3-.14.6-.26.9-.38l.12-.05c.33-.13.67-.24,1-.35l.73-.21.55-.15.78-.16.57-.12.23,0,1-.13.28,0c.38,0,.76-.07,1.15-.09H125c.26,0,.51,0,.77,0h.77l.65,0,.71,0,.65,0,.7.08.63.09.75.13c.19,0,.39.07.58.12s.59.13.87.21l.56.15.3.09c.29.09.58.19.86.3l.24.09c.26.09.5.2.75.31l.36.16c.36.17.7.35,1,.54,2.78,1.6,4.16,3.7,4.16,5.8l0-13.35c0-2.1-1.37-4.2-4.15-5.8-.33-.2-.68-.37-1-.54l-.37-.16-.63-.28-.11,0-.25-.09-.85-.29-.3-.09-.2-.06c-.11,0-.24-.06-.36-.09l-.87-.22-.23,0-.35-.06c-.25-.05-.5-.1-.75-.13l-.3-.06-.33,0-.7-.08-.34,0-.31,0-.72,0-.35,0h-1.44l-.39,0h-.22l-1,.08-.18,0-.28,0-1,.14-.24,0-.11,0-.45.09-.78.17-.55.15c-.25.07-.49.13-.73.21l-.15,0c-.29.09-.58.2-.86.3l-.12.05q-.47.18-.9.39l-.26.12c-.32.16-.64.32-1,.5l-.17.1-.15.1-.26.16-.22.15-.24.17-.21.15-.22.18-.19.16-.21.17-.08.08-.07.07-.32.31-.1.11c-.13.14-.25.28-.37.43h0l-.08.11-.19.27-.1.15a2.13,2.13,0,0,0-.16.25.43.43,0,0,0,0,.07l0,.1a2.12,2.12,0,0,0-.11.21,1.42,1.42,0,0,0-.08.18,1,1,0,0,0-.09.21.3.3,0,0,0,0,.1l0,.08a1.72,1.72,0,0,0-.07.21,1.21,1.21,0,0,0,0,.18,1.6,1.6,0,0,0,0,.21l0,.11a.17.17,0,0,0,0,.07,1.55,1.55,0,0,0,0,.21,1.11,1.11,0,0,1,0,.19,1.48,1.48,0,0,0,0,.21.53.53,0,0,0,0,.13v.12l0,13.35a2.18,2.18,0,0,1,0-.25C112.19,329.45,112.2,329.38,112.2,329.31Z"/><path class="cls-129" d="M164.46,325.08l-14.74.44c-.23.21-.48.42-.74.62l-.25.19-.54.4-.33.23c-.17.12-.34.24-.52.35l-.37.24-.72.44c-.66.38-1.34.74-2.05,1.08s-1.44.64-2.18.93h0l-.72,8.53-8.72,1.35-8.07-7.17-1.89-.11-.52-.05-.7-.06-.66-.08-.69-.08-.65-.09-.73-.12L118,332l-.73-.13-.6-.12-.93-.22-.46-.1L114,331.1l-.07,0-12.89,3.82,0-11.24a11.57,11.57,0,0,1-2.86-6.12l-12.41-4.65,0,13.35,12.41,4.65a10.15,10.15,0,0,0,.88,3.06l-4.64-2.68,0,13.36,6.4,3.69,13.13-3.88H114c.43.13.87.24,1.31.35l.46.11.93.21.18,0,.42.08.74.14.62.1.73.12.26,0,.39.05.69.09.66.07.7.07.29,0h.23c.63.05,1.26.09,1.89.11l8.08,7.18,8.71-1.36.72-8.53a30,30,0,0,0,4.23-2l.41-.24.31-.2.37-.23.52-.36.33-.22.54-.4.26-.2c.25-.2.5-.4.74-.61l14.73-.44,2.31-5.05,0-13.36Z"/><path class="cls-130" d="M146.25,328a31.08,31.08,0,0,1-4.23,2l-.72,8.54-8.72,1.35-8.07-7.17a44.77,44.77,0,0,1-10.57-1.64L100.82,335l-6.4-3.7,6.66-7.61a11.57,11.57,0,0,1-2.86-6.12l-12.41-4.65,2.3-5.05,14.74-.45a22.64,22.64,0,0,1,3.47-2.46,31.88,31.88,0,0,1,4.24-2l.71-8.53L120,293l8.07,7.18a45.29,45.29,0,0,1,10.57,1.63L151.75,298l6.41,3.7-6.67,7.61a11.47,11.47,0,0,1,2.86,6.12L166.76,320l-2.3,5.05-14.74.44A22.67,22.67,0,0,1,146.25,328Zm-29.88-5.77c5.51,3.18,14.42,3.18,19.9,0s5.44-8.34-.07-11.52-14.42-3.19-19.9,0-5.44,8.34.07,11.52"/><polygon class="cls-131" points="188.39 343.74 184.7 347.95 184.68 355.35 188.37 351.13 188.39 343.74"/><path class="cls-132" d="M163,359.05s0-.06,0-.1,0-.08,0-.12,0-.06,0-.1l0-.11,0-.1a.56.56,0,0,1,0-.12l0-.1a.61.61,0,0,1,.05-.12l0-.09.06-.12a.31.31,0,0,0,.05-.1l.09-.13,0-.09.11-.15,0-.06c.07-.08.13-.16.21-.24l.05-.06.18-.17.08-.08.12-.1.1-.09.12-.1.12-.08.13-.1.13-.08.14-.09.18-.11.52-.28.15-.06.5-.22.06,0,.56-.19c.13-.05.27-.08.4-.12l.31-.08c.14,0,.28-.06.43-.09l.31-.07.13,0,.54-.07.16,0,.63-.06h1.33l.4,0,.36,0,.39,0,.35.05.41.07.32.07.49.11.3.09.17.05.47.16.14.05.41.17.2.09c.2.1.39.19.57.3,1.54.89,2.31,2.05,2.3,3.21l0-7.39a3.87,3.87,0,0,0-2.3-3.21,5.12,5.12,0,0,0-.57-.3l-.2-.09-.35-.15-.06,0-.14-.05-.47-.16-.16-.06-.11,0-.2-.05-.49-.12-.13,0-.19,0-.41-.07a1,1,0,0,0-.17,0l-.18,0-.39-.05-.19,0h-.17l-.4,0h-1l-.22,0h-.11l-.54,0h-.1l-.15,0-.54.08-.14,0h-.06l-.25.05-.43.1-.31.08-.4.11-.08,0-.48.16-.06,0-.5.21-.14.07c-.18.09-.36.18-.53.28l-.1.05-.08.06-.14.09-.13.08-.13.09-.11.09-.13.1-.1.09-.12.09,0,0,0,0-.18.18,0,.06-.21.23h0l0,.06-.11.15a.22.22,0,0,1-.05.08l-.09.14,0,0,0,.06-.06.11a1,1,0,0,1,0,.1.61.61,0,0,0-.05.12l0,0s0,0,0,.05,0,.08,0,.11l0,.11,0,.11s0,0,0,.06,0,0,0,0,0,.08,0,.12,0,.07,0,.1,0,.08,0,.12v.14l0,7.39v-.14S163,359.09,163,359.05Z"/><path class="cls-133" d="M191.88,356.71l-8.16.25-.41.34-.14.1-.3.23-.18.12-.29.2-.2.13-.4.24q-.56.31-1.14.6c-.39.18-.79.36-1.21.52h0l-.39,4.72-4.83.75-4.47-4c-.35,0-.7,0-1-.06l-.29,0-.39,0-.36,0-.39,0-.36-.05-.4-.07-.35-.05-.4-.08-.33-.07-.52-.11-.26-.06L164,360h0l-7.14,2.12,0-6.23a6.43,6.43,0,0,1-1.58-3.38L148.34,350l0,7.39,6.87,2.58a5.79,5.79,0,0,0,.48,1.69l-2.57-1.48,0,7.39,3.55,2.05,7.26-2.15h0l.72.19.26.06.52.11.09,0,.24,0,.4.08.35.06.4.06.15,0,.21,0,.38.05.37,0,.38,0h.3c.34,0,.69.05,1,.06l4.47,4,4.83-.74.39-4.73a15.9,15.9,0,0,0,2.35-1.12l.22-.13.18-.11.2-.13.29-.19.18-.13.3-.22.14-.11.41-.34,8.16-.25,1.27-2.79,0-7.39Z"/><path class="cls-134" d="M181.8,358.32a17,17,0,0,1-2.35,1.12l-.39,4.72-4.83.75-4.47-4a25,25,0,0,1-5.85-.91l-7.26,2.16-3.55-2.05,3.69-4.22a6.43,6.43,0,0,1-1.58-3.38L148.34,350l1.27-2.8,8.16-.24a12.07,12.07,0,0,1,1.92-1.36,15.9,15.9,0,0,1,2.35-1.12l.39-4.73,4.83-.75,4.47,4a25,25,0,0,1,5.85.9l7.26-2.15,3.55,2.05L184.7,348a6.35,6.35,0,0,1,1.58,3.39l6.87,2.58-1.27,2.79-8.16.25A12.07,12.07,0,0,1,181.8,358.32Zm-16.54-3.19a12.14,12.14,0,0,0,11,0c3-1.76,3-4.62,0-6.38a12.14,12.14,0,0,0-11,0c-3,1.76-3,4.62,0,6.38"/><polygon class="cls-135" points="92.59 294.32 103.1 303.31 113.09 309.12 102.58 300.13 92.59 294.32"/><path class="cls-136" d="M135.84,226c-1.39-.81-3.32-.69-5.45.54l-45,26a16.82,16.82,0,0,0-7.64,13.22L77.83,294c0,2.42.86,4.12,2.24,4.92l10,5.81c-1.37-.8-2.23-2.5-2.23-4.92l-.08-28.32c0-4.87,3.4-10.78,7.64-13.23l45-26c2.13-1.22,4.06-1.34,5.45-.53Z"/><path class="cls-137" d="M140.38,232.3c4.23-2.44,7.67-.48,7.69,4.38l.08,28.32a16.84,16.84,0,0,1-7.64,13.23l-27.46,15.86,0,15-10.51-9-7.06,4.08c-4.24,2.44-7.68.48-7.69-4.38l-.08-28.32c0-4.87,3.4-10.78,7.64-13.23Z"/><path class="cls-20" d="M103.77,276.16a6.42,6.42,0,0,1-2.91,5c-1.61.93-2.91.19-2.91-1.66a6.38,6.38,0,0,1,2.91-5C102.47,273.57,103.77,274.31,103.77,276.16Z"/><path class="cls-20" d="M114.9,269.73a6.42,6.42,0,0,1-2.91,5c-1.61.93-2.92.18-2.92-1.66a6.43,6.43,0,0,1,2.92-5C113.6,267.14,114.9,267.89,114.9,269.73Z"/><path class="cls-20" d="M126,263.31a6.41,6.41,0,0,1-2.92,5c-1.61.93-2.91.19-2.91-1.66a6.42,6.42,0,0,1,2.91-5C124.72,260.72,126,261.46,126,263.31Z"/><path class="cls-20" d="M137.16,256.88a6.43,6.43,0,0,1-2.92,5c-1.61.93-2.91.19-2.91-1.66a6.42,6.42,0,0,1,2.91-5C135.85,254.29,137.16,255,137.16,256.88Z"/><g class="cls-1"><path class="cls-138" d="M369.2,179.51l0,13c0,5.74-3.79,11.46-11.31,15.83-15.15,8.8-39.79,8.8-55,0-7.67-4.43-11.5-10.24-11.49-16.05l0-13c0,5.81,3.82,11.62,11.49,16.05,15.24,8.8,39.89,8.8,55,0C365.42,191,369.19,185.24,369.2,179.51Z"/><ellipse class="cls-139" cx="330.29" cy="179.4" rx="22.54" ry="38.92" transform="translate(149.95 509.18) rotate(-89.84)"/></g><path class="cls-140" d="M343.9,164.52l-30.85,4.72a4.4,4.4,0,0,0-1.53,8.16l22.67,13.09a4.4,4.4,0,0,0,6.2-2l8.18-17.81A4.4,4.4,0,0,0,343.9,164.52Z"/><path class="cls-141" d="M308,401.12l-36.51,21.21a10.16,10.16,0,0,1-9.22,0l-72-41.63A3.28,3.28,0,0,1,188.4,378l0,5.33a3.26,3.26,0,0,0,1.93,2.69l72,41.63a10.13,10.13,0,0,0,9.22,0L308,406.46a3.26,3.26,0,0,0,1.9-2.65v-5.34A3.23,3.23,0,0,1,308,401.12Z"/><path class="cls-142" d="M308,395.78c2.55,1.48,2.57,3.86,0,5.34l-36.51,21.21a10.16,10.16,0,0,1-9.22,0l-72-41.63c-2.56-1.48-2.57-3.87,0-5.35l36.5-21.21a10.16,10.16,0,0,1,9.22,0Z"/><path class="cls-143" d="M303.06,395.44l-67.51-38.79a9,9,0,0,0-8.19,0l-4.84,2.82.59.64a1.56,1.56,0,0,1-.38,2.39l-13.08,7.56a1.6,1.6,0,0,1-1.23.14l-2.87-.87-10.61,6.16c-2.25,1.32-2.24,3.44,0,4.75L262.48,419a9,9,0,0,0,8.19,0l32.42-18.84C305.35,398.87,305.33,396.75,303.06,395.44Z"/><line class="cls-14" x1="236.97" y1="206.07" x2="234.17" y2="148.1"/><path class="cls-144" d="M267.83,107.33c-2.68-1.57-6.41-1.35-10.51,1a21.42,21.42,0,0,0-2,1.33l5.27,3.07a21.54,21.54,0,0,1,2-1.34c4.11-2.37,7.83-2.59,10.52-1Z"/><path class="cls-145" d="M251,98.59c-2.69-1.56-6.41-1.34-10.51,1-7.18,4.15-13.15,13.48-14.47,22a20.52,20.52,0,0,0-2.4,1.19,34.44,34.44,0,0,0-12,12.64h0a9.6,9.6,0,0,0-4.26,1.4c-5.72,3.3-10.34,11.29-10.32,17.86a8.28,8.28,0,0,0,1.8,5.63,16.3,16.3,0,0,0-2,7.35c0,2.61.93,4.44,2.41,5.3l5.27,3.07c-1.48-.87-2.4-2.7-2.41-5.3a16.42,16.42,0,0,1,2-7.35,8.31,8.31,0,0,1-1.79-5.64c0-6.56,4.6-14.56,10.31-17.86a9.77,9.77,0,0,1,4.26-1.4c3.06-5.3,7.29-9.93,12-12.63a20,20,0,0,1,2.41-1.2c1.31-8.56,7.28-17.9,14.46-22,4.1-2.37,7.83-2.59,10.52-1Z"/><path class="cls-146" d="M245.8,102.69c8.16-4.71,14.8-.93,14.83,8.45,0,.53,0,1.07-.07,1.62a21.54,21.54,0,0,1,2-1.34c8.16-4.71,14.8-.93,14.83,8.45s-6.57,20.8-14.73,25.52l-52.21,30.14c-4.56,2.63-8.27.52-8.29-4.72a16.42,16.42,0,0,1,2-7.35,8.31,8.31,0,0,1-1.79-5.64c0-6.56,4.6-14.56,10.31-17.86a9.77,9.77,0,0,1,4.26-1.4c3.06-5.3,7.29-9.93,12-12.63a20,20,0,0,1,2.41-1.2C232.65,116.17,238.62,106.83,245.8,102.69Z"/><path class="cls-147" d="M281.53,112.28c-2.27-1.32-5.41-1.13-8.88.87a17.9,17.9,0,0,0-1.71,1.12l4.45,2.59a20.18,20.18,0,0,1,1.71-1.13c3.47-2,6.61-2.18,8.88-.87Z"/><path class="cls-148" d="M267.36,104.91c-2.27-1.32-5.41-1.13-8.88.87-6.05,3.49-11.09,11.37-12.2,18.6a16.64,16.64,0,0,0-2,1,29.1,29.1,0,0,0-10.1,10.66h0a8.18,8.18,0,0,0-3.59,1.18c-4.83,2.78-8.72,9.53-8.71,15.07a7,7,0,0,0,1.52,4.75,13.85,13.85,0,0,0-1.68,6.21c0,2.19.78,3.74,2,4.47l4.45,2.58c-1.25-.73-2-2.27-2-4.47a13.82,13.82,0,0,1,1.68-6.2,7,7,0,0,1-1.52-4.75c0-5.55,3.88-12.29,8.71-15.07a8.2,8.2,0,0,1,3.59-1.19A29.18,29.18,0,0,1,248.7,128a16.52,16.52,0,0,1,2-1c1.11-7.23,6.15-15.11,12.2-18.61,3.47-2,6.61-2.18,8.88-.86Z"/><path class="cls-149" d="M262.93,108.36c6.89-4,12.49-.78,12.52,7.13,0,.46,0,.91-.06,1.37a20.18,20.18,0,0,1,1.71-1.13c6.89-4,12.49-.78,12.51,7.13s-5.54,17.56-12.43,21.53l-44.05,25.44c-3.85,2.22-7,.43-7-4a13.82,13.82,0,0,1,1.68-6.2,7,7,0,0,1-1.52-4.75c0-5.55,3.88-12.29,8.71-15.07a8.2,8.2,0,0,1,3.59-1.19A29.18,29.18,0,0,1,248.7,128a16.52,16.52,0,0,1,2-1C251.84,119.74,256.88,111.86,262.93,108.36Z"/><path class="cls-150" d="M345.39,302.49l86.85-50.14c2.3-1.33,4.19-4.93,4.19-8V174.72c0-3.07-1.89-4.5-4.19-3.17l-86.85,50.14c-2.3,1.33-4.19,4.93-4.19,8v69.64C341.2,302.4,343.09,303.82,345.39,302.49Z"/><path class="cls-151" d="M345.72,221.5l86.19-49.76c2.49-1.43,4.52-.28,4.52,2.57v8.6l-95.23,55v-8.59A10,10,0,0,1,345.72,221.5Z"/><path class="cls-152" d="M425.37,182.32c0,1.09.76,1.52,1.7,1a3.77,3.77,0,0,0,1.71-3c0-1.08-.76-1.52-1.71-1A3.75,3.75,0,0,0,425.37,182.32Z"/><path class="cls-153" d="M418.48,186.3c0,1.08.76,1.52,1.71,1a3.75,3.75,0,0,0,1.7-2.94c0-1.08-.76-1.52-1.7-1A3.73,3.73,0,0,0,418.48,186.3Z"/><path class="cls-154" d="M411.59,190.28c0,1.08.76,1.51,1.71,1a3.75,3.75,0,0,0,1.7-2.94c0-1.09-.76-1.52-1.7-1A3.77,3.77,0,0,0,411.59,190.28Z"/><path class="cls-20" d="M352,291.07l77.31-46.26a6.39,6.39,0,0,0,2.66-5.07V195.56c0-1.94-1.2-2.85-2.66-2L352,239.82a6.37,6.37,0,0,0-2.66,5.07v44.18C349.36,291,350.56,291.92,352,291.07Z"/><g class="cls-1"><polygon class="cls-155" points="301.3 361.9 407.54 300.16 473.42 338.19 367.18 399.93 301.3 361.9"/><polygon class="cls-156" points="367.18 399.93 473.42 338.19 473.4 343.68 367.16 405.42 367.18 399.93"/><polygon class="cls-157" points="301.51 284.18 301.3 361.9 367.18 399.93 367.16 405.42 296.51 364.63 296.74 281.42 301.51 284.18"/><polygon class="cls-158" points="301.51 284.18 407.75 222.44 407.54 300.16 301.3 361.9 301.51 284.18"/><polygon class="cls-159" points="304.87 286.12 404.37 228.3 404.18 298.22 304.68 356.04 304.87 286.12"/><polygon class="cls-160" points="296.74 281.42 402.98 219.69 407.75 222.44 301.51 284.18 296.74 281.42"/></g><polygon class="cls-161" points="319.82 359.31 315.4 361.87 319.85 364.44 324.28 361.88 319.82 359.31"/><polygon class="cls-162" points="326.08 360.84 330.51 358.29 326.06 355.71 321.63 358.27 326.08 360.84"/><polygon class="cls-163" points="332.31 357.24 336.74 354.69 332.29 352.12 327.86 354.67 332.31 357.24"/><polygon class="cls-164" points="338.55 353.65 342.97 351.09 338.52 348.52 334.09 351.07 338.55 353.65"/><polygon class="cls-165" points="344.75 344.92 340.32 347.48 344.77 350.05 349.2 347.49 344.75 344.92"/><polygon class="cls-166" points="350.98 341.32 346.55 343.88 351.01 346.45 355.43 343.9 350.98 341.32"/><polygon class="cls-167" points="357.21 337.73 352.78 340.28 357.24 342.86 361.66 340.3 357.21 337.73"/><polygon class="cls-168" points="363.44 334.13 359.01 336.69 363.47 339.26 367.89 336.7 363.44 334.13"/><polygon class="cls-169" points="369.67 330.53 365.24 333.09 369.7 335.66 374.12 333.1 369.67 330.53"/><polygon class="cls-170" points="375.9 326.94 371.47 329.49 375.93 332.06 380.36 329.51 375.9 326.94"/><polygon class="cls-171" points="382.16 328.47 386.58 325.91 382.13 323.34 377.7 325.89 382.16 328.47"/><polygon class="cls-172" points="388.39 324.87 392.82 322.31 388.36 319.74 383.93 322.3 388.39 324.87"/><polygon class="cls-173" points="394.62 321.27 399.05 318.72 394.59 316.14 390.16 318.7 394.62 321.27"/><polygon class="cls-174" points="400.85 317.67 405.28 315.12 400.82 312.55 396.39 315.1 400.85 317.67"/><polygon class="cls-175" points="402.63 311.5 407.08 314.08 411.51 311.52 407.05 308.95 402.63 311.5"/><polygon class="cls-176" points="333.14 364.92 337.57 362.36 333.12 359.79 328.69 362.34 333.14 364.92"/><polygon class="cls-177" points="339.37 361.32 343.8 358.76 339.35 356.19 334.92 358.75 339.37 361.32"/><polygon class="cls-178" points="345.6 357.72 350.03 355.17 345.58 352.59 341.15 355.15 345.6 357.72"/><polygon class="cls-179" points="351.81 349 347.38 351.55 351.83 354.12 356.26 351.57 351.81 349"/><polygon class="cls-180" points="358.04 345.4 353.61 347.95 358.06 350.53 362.49 347.97 358.04 345.4"/><polygon class="cls-181" points="364.27 341.8 359.84 344.36 364.3 346.93 368.72 344.37 364.27 341.8"/><polygon class="cls-182" points="370.5 338.2 366.07 340.76 370.52 343.33 374.95 340.78 370.5 338.2"/><polygon class="cls-183" points="376.73 334.61 372.3 337.16 376.76 339.74 381.18 337.18 376.73 334.61"/><polygon class="cls-184" points="382.96 331.01 378.53 333.57 382.99 336.14 387.41 333.58 382.96 331.01"/><polygon class="cls-185" points="389.22 332.54 393.64 329.99 389.19 327.41 384.76 329.97 389.22 332.54"/><polygon class="cls-186" points="395.45 328.94 399.87 326.39 395.42 323.82 390.99 326.37 395.45 328.94"/><polygon class="cls-187" points="401.68 325.35 406.11 322.79 401.65 320.22 397.22 322.77 401.68 325.35"/><polygon class="cls-188" points="407.91 321.75 412.33 319.19 407.88 316.62 403.45 319.18 407.91 321.75"/><polygon class="cls-189" points="414.14 318.15 418.57 315.6 414.11 313.02 409.68 315.58 414.14 318.15"/><polygon class="cls-190" points="335.75 366.42 333.94 367.46 326.88 363.38 322.46 365.94 329.52 370.02 331.65 371.25 333.97 372.59 340.2 368.99 343.45 367.12 344.63 366.44 340.17 363.86 338.99 364.55 335.75 366.42"/><polygon class="cls-191" points="346.43 365.39 350.86 362.84 346.4 360.27 341.98 362.82 346.43 365.39"/><polygon class="cls-192" points="352.66 361.8 357.09 359.24 352.63 356.67 348.21 359.23 352.66 361.8"/><polygon class="cls-193" points="358.87 353.07 354.44 355.63 358.89 358.2 363.32 355.64 358.87 353.07"/><polygon class="cls-194" points="365.1 349.48 360.67 352.03 365.12 354.6 369.55 352.05 365.1 349.48"/><polygon class="cls-195" points="371.33 345.88 366.9 348.43 371.35 351 375.78 348.45 371.33 345.88"/><polygon class="cls-196" points="377.56 342.28 373.13 344.84 377.58 347.41 382.01 344.85 377.56 342.28"/><polygon class="cls-197" points="383.79 338.68 379.36 341.24 383.81 343.81 388.24 341.25 383.79 338.68"/><polygon class="cls-198" points="390.02 335.09 385.59 337.64 390.05 340.21 394.47 337.66 390.02 335.09"/><polygon class="cls-199" points="396.28 336.62 400.7 334.06 396.25 331.49 391.82 334.05 396.28 336.62"/><polygon class="cls-200" points="402.51 333.02 406.93 330.46 402.48 327.89 398.05 330.45 402.51 333.02"/><polygon class="cls-201" points="408.74 329.42 413.16 326.87 408.71 324.29 404.28 326.85 408.74 329.42"/><polygon class="cls-202" points="414.97 325.82 419.39 323.27 414.94 320.7 410.51 323.25 414.97 325.82"/><polygon class="cls-203" points="421.2 322.23 425.63 319.67 421.17 317.1 416.74 319.66 421.2 322.23"/><polygon class="cls-204" points="341.03 376.66 345.46 374.11 341 371.54 336.57 374.09 341.03 376.66"/><polygon class="cls-205" points="347.26 373.07 351.69 370.51 347.23 367.94 342.81 370.5 347.26 373.07"/><polygon class="cls-206" points="353.49 369.47 357.92 366.91 353.46 364.34 349.04 366.9 353.49 369.47"/><polygon class="cls-207" points="359.72 365.87 364.15 363.32 359.69 360.75 355.27 363.3 359.72 365.87"/><polygon class="cls-208" points="365.92 357.15 361.5 359.7 365.95 362.27 370.38 359.72 365.92 357.15"/><polygon class="cls-209" points="372.15 353.55 367.73 356.11 372.18 358.68 376.61 356.12 372.15 353.55"/><polygon class="cls-210" points="378.38 349.95 373.96 352.51 378.41 355.08 382.84 352.52 378.38 349.95"/><polygon class="cls-211" points="384.62 346.36 380.19 348.91 384.64 351.48 389.07 348.93 384.62 346.36"/><polygon class="cls-212" points="390.85 342.76 386.42 345.31 390.87 347.89 395.3 345.33 390.85 342.76"/><polygon class="cls-213" points="397.08 339.16 392.65 341.72 397.1 344.29 401.53 341.73 397.08 339.16"/><polygon class="cls-214" points="403.33 340.69 407.76 338.14 403.31 335.56 398.88 338.12 403.33 340.69"/><polygon class="cls-215" points="409.56 337.1 413.99 334.54 409.54 331.97 405.11 334.52 409.56 337.1"/><polygon class="cls-216" points="415.8 333.5 420.22 330.94 415.77 328.37 411.34 330.93 415.8 333.5"/><polygon class="cls-217" points="422.03 329.9 426.45 327.35 422 324.77 417.57 327.33 422.03 329.9"/><polygon class="cls-218" points="428.26 326.3 432.68 323.75 428.23 321.18 423.8 323.73 428.26 326.3"/><polygon class="cls-219" points="348.09 380.74 352.51 378.18 348.06 375.61 343.63 378.17 348.09 380.74"/><polygon class="cls-220" points="354.32 377.14 358.75 374.59 354.29 372.01 349.86 374.57 354.32 377.14"/><polygon class="cls-221" points="360.55 373.55 364.98 370.99 360.52 368.42 356.09 370.97 360.55 373.55"/><polygon class="cls-222" points="366.78 369.95 371.21 367.39 366.75 364.82 362.32 367.38 366.78 369.95"/><polygon class="cls-223" points="405.94 342.19 404.13 343.24 399.71 345.79 397.9 346.83 393.48 349.39 391.67 350.43 387.25 352.99 385.44 354.03 381.02 356.58 379.21 357.63 374.79 360.18 368.56 363.78 373.01 366.35 379.24 362.75 383.67 360.2 385.47 359.16 389.9 356.6 391.7 355.56 396.13 353 397.93 351.96 402.36 349.41 404.16 348.37 408.59 345.81 410.39 344.77 412.61 343.49 414.82 342.21 410.37 339.64 408.15 340.92 405.94 342.19"/><polygon class="cls-224" points="416.62 341.17 421.05 338.61 416.6 336.04 412.17 338.6 416.62 341.17"/><polygon class="cls-225" points="422.85 337.57 427.28 335.02 422.83 332.44 418.4 335 422.85 337.57"/><polygon class="cls-226" points="429.08 333.98 433.51 331.42 429.06 328.85 424.63 331.4 429.08 333.98"/><polygon class="cls-227" points="435.31 330.38 439.74 327.82 435.29 325.25 430.86 327.81 435.31 330.38"/><path class="cls-20" d="M435,357.1l-32.09,18.53a3.41,3.41,0,0,1-3.07.13L383,366.05c-.79-.45-.69-1.25.22-1.77l32.09-18.53a3.41,3.41,0,0,1,3.07-.12l16.81,9.7C436,355.78,435.88,356.58,435,357.1Z"/><path class="cls-228" d="M250.32,368.15A33.63,33.63,0,0,1,262,380.43l-5,2.87a19.18,19.18,0,0,0-6.63-7c-2.41-1.39-4.82-1.73-6.66-.68l-5-8.67C241.87,365.12,246.1,365.71,250.32,368.15Z"/><path class="cls-229" d="M257.87,363.76c-4.22-2.44-8.45-3-11.67-1.19L238.64,367c3.23-1.84,7.46-1.25,11.68,1.19A33.63,33.63,0,0,1,262,380.43l7.55-4.39A33.46,33.46,0,0,0,257.87,363.76Z"/><path class="cls-230" d="M250.37,348.81c8.54,4.93,17.07,13.59,23.54,24.81l-5,2.87c-5.1-8.83-11.81-15.65-18.53-19.53s-13.44-4.82-18.58-1.89l-5-8.67C233.29,342.69,241.84,343.89,250.37,348.81Z"/><path class="cls-231" d="M257.93,344.42c-8.54-4.92-17.08-6.12-23.6-2.41l-7.56,4.39c6.52-3.71,15.07-2.51,23.6,2.41s17.07,13.59,23.54,24.81l7.56-4.39C275,358,266.47,349.35,257.93,344.42Z"/><path class="cls-232" d="M250.43,329.47c12.85,7.42,25.68,20.46,35.43,37.35l-5,2.86c-8.37-14.49-19.39-25.69-30.42-32.05s-22.07-7.92-30.49-3.11l-5-8.67C224.72,320.26,237.58,322.06,250.43,329.47Z"/><path class="cls-233" d="M258,325.08c-12.84-7.41-25.71-9.21-35.52-3.62l-7.55,4.39c9.81-5.59,22.67-3.79,35.52,3.62s25.68,20.46,35.43,37.35l7.55-4.4C283.66,345.54,270.83,332.5,258,325.08Z"/><path class="cls-234" d="M248.11,381.8c1.06-.62,2.54-.53,4.18.41a13,13,0,0,1,5.86,10.15c0,1.86-.66,3.16-1.72,3.77l-3.52,2.05a4.11,4.11,0,0,0,1.71-3.77,12.92,12.92,0,0,0-5.86-10.15c-1.63-.94-3.11-1-4.18-.41Z"/><path class="cls-235" d="M248.76,384.26c-3.24-1.87-5.88-.37-5.89,3.36a12.9,12.9,0,0,0,5.86,10.15c3.24,1.88,5.88.37,5.89-3.36A12.92,12.92,0,0,0,248.76,384.26Z"/><polygon class="cls-236" points="109.61 372.06 99.05 357.85 116.27 360.61 109.61 372.06"/><path class="cls-237" d="M116.27,360.61a3.35,3.35,0,0,0-3.35.33,10.33,10.33,0,0,0-4.68,8.11,3.28,3.28,0,0,0,1.37,3l56.33,32.74a3.28,3.28,0,0,1-1.37-3,10.3,10.3,0,0,1,4.68-8.11,3.31,3.31,0,0,1,3.35-.33Z"/><path class="cls-238" d="M169.25,393.68c2.6-1.5,4.71-.3,4.72,2.68a10.32,10.32,0,0,1-4.69,8.11c-2.59,1.5-4.7.3-4.71-2.68A10.3,10.3,0,0,1,169.25,393.68Z"/><path class="cls-239" d="M103.79,358.61l-4.74-.76,2.87,3.87A6.54,6.54,0,0,0,103.79,358.61Z"/><path class="cls-240" d="M168,394.64l-56.05-33a10.78,10.78,0,0,0-3.59,6.35l56.38,32.46A10.86,10.86,0,0,1,168,394.64Z"/><path class="cls-241" d="M159.88,414.45l-52.73,30.64a4.56,4.56,0,0,1-4.16,0L33.54,405a1.46,1.46,0,0,1-.86-1.21l0,4.74a1.47,1.47,0,0,0,.87,1.21L103,449.84a4.62,4.62,0,0,0,4.16,0l52.72-30.64a1.47,1.47,0,0,0,.86-1.2v-4.74A1.44,1.44,0,0,1,159.88,414.45Z"/><path class="cls-242" d="M159.86,412a1.27,1.27,0,0,1,0,2.41l-52.73,30.64a4.56,4.56,0,0,1-4.16,0L33.54,405a1.27,1.27,0,0,1,0-2.41L86.26,372a4.56,4.56,0,0,1,4.16,0Z"/><polygon class="cls-243" points="99.55 384.18 53.64 410.69 50.85 409.08 96.76 382.57 99.55 384.18"/><polygon class="cls-244" points="106.96 388.46 61.05 414.97 58.27 413.36 104.18 386.85 106.96 388.46"/><polygon class="cls-245" points="114.38 392.74 68.47 419.25 65.69 417.64 111.6 391.14 114.38 392.74"/><polygon class="cls-246" points="121.8 397.03 75.89 423.53 73.11 421.93 119.02 395.42 121.8 397.03"/><polygon class="cls-247" points="129.22 401.31 83.31 427.81 80.52 426.21 126.43 399.7 129.22 401.31"/><polygon class="cls-248" points="136.63 405.59 90.72 432.1 87.94 430.49 133.85 403.99 136.63 405.59"/><polygon class="cls-249" points="144.05 409.87 98.14 436.38 95.36 434.77 141.27 408.27 144.05 409.87"/></g></svg>