<svg xmlns="http://www.w3.org/2000/svg" enable-background="new 0 0 64 64" viewBox="0 0 64 64"><line x1="58.5" x2="58.5" y1="36.2" y2="12.7" fill="none" stroke="#010101" stroke-linecap="round" stroke-linejoin="round" stroke-miterlimit="10" stroke-width="2"/><path fill="none" stroke="#010101" stroke-linecap="round" stroke-linejoin="round" stroke-miterlimit="10" stroke-width="2" d="M1 12.7v39.9c0 2.6 2.1 4.7 4.7 4.7h36.1M58.5 12.7H1V5.4C1 3 3 1 5.4 1h48.7c2.4 0 4.4 2 4.4 4.4C58.5 5.4 58.5 12.7 58.5 12.7z"/><ellipse cx="7.9" cy="6.9" fill="none" stroke="#010101" stroke-linecap="round" stroke-linejoin="round" stroke-miterlimit="10" stroke-width="2" rx="2.4" ry="2.3"/><ellipse cx="15.1" cy="6.9" fill="none" stroke="#010101" stroke-linecap="round" stroke-linejoin="round" stroke-miterlimit="10" stroke-width="2" rx="2.4" ry="2.3"/><ellipse cx="22.3" cy="6.9" fill="none" stroke="#010101" stroke-linecap="round" stroke-linejoin="round" stroke-miterlimit="10" stroke-width="2" rx="2.4" ry="2.3"/><path fill="none" stroke="#010101" stroke-linecap="round" stroke-linejoin="round" stroke-miterlimit="10" stroke-width="2" d="M52.3 8.4H32.1c-.9 0-1.6-.7-1.6-1.6l0 0c0-.9.7-1.6 1.6-1.6h20.2c.9 0 1.6.7 1.6 1.6l0 0C53.9 7.7 53.2 8.4 52.3 8.4zM26 27.9c0 2.7-1.1 5.1-3 6.8-1.7 1.6-3.9 2.5-6.4 2.5s-4.7-1-6.4-2.5c-1.8-1.7-3-4.1-3-6.8 0-5.2 4.2-9.4 9.4-9.4C21.8 18.5 26 22.7 26 27.9z"/><circle cx="16.6" cy="25.2" r="2.9" fill="none" stroke="#010101" stroke-linecap="round" stroke-linejoin="round" stroke-miterlimit="10" stroke-width="2"/><path fill="none" stroke="#010101" stroke-linecap="round" stroke-linejoin="round" stroke-miterlimit="10" stroke-width="2" d="
		M10.2,34.7c1-2.6,3.5-4.4,6.4-4.4s5.4,1.8,6.4,4.4"/><line x1="34.9" x2="6.4" y1="51.5" y2="51.5" fill="none" stroke="#010101" stroke-linecap="round" stroke-linejoin="round" stroke-miterlimit="10" stroke-width="2"/><line x1="33.3" x2="6.4" y1="43.4" y2="43.4" fill="none" stroke="#010101" stroke-linecap="round" stroke-linejoin="round" stroke-miterlimit="10" stroke-width="2"/><line x1="34.4" x2="31.5" y1="35.3" y2="35.3" fill="none" stroke="#010101" stroke-linecap="round" stroke-linejoin="round" stroke-miterlimit="10" stroke-width="2"/><line x1="48.8" x2="31.5" y1="27.3" y2="27.3" fill="none" stroke="#010101" stroke-linecap="round" stroke-linejoin="round" stroke-miterlimit="10" stroke-width="2"/><line x1="31.6" x2="53.1" y1="19.2" y2="19.2" fill="none" stroke="#010101" stroke-linecap="round" stroke-linejoin="round" stroke-miterlimit="10" stroke-width="2"/><path fill="none" stroke="#010101" stroke-linecap="round" stroke-linejoin="round" stroke-miterlimit="10" stroke-width="2" d="
		M61.7,37.2c0.7,0.2,1.3,0.8,1.3,1.6v1.8c0,4.6-1,9.2-3.1,13.4c-2.2,4.3-5.2,7.4-9.2,8.9c-0.4,0.1-0.8,0.1-1.1,0
		c-4-1.5-7-4.6-9.2-8.9c-2.1-4.1-3.1-8.7-3.1-13.4v-1.8c0-0.8,0.5-1.4,1.3-1.6c4.6-1,8-2.9,10.4-5.6c0.6-0.7,1.8-0.7,2.4,0
		C53.7,34.3,57.1,36.2,61.7,37.2z"/><path fill="none" stroke="#010101" stroke-linecap="round" stroke-linejoin="round" stroke-miterlimit="10" stroke-width="2" d="
		M50.1,59.4c-2.7-1.2-4.9-3.5-6.7-7c-1.8-3.4-2.7-7.5-2.7-11.8v-0.4c3.8-1,7-2.6,9.5-4.9c2.5,2.3,5.7,3.9,9.5,4.9v0.4
		c0,4.3-0.9,8.3-2.7,11.8C55,55.9,52.8,58.2,50.1,59.4z"/><path fill="none" stroke="#010101" stroke-linecap="round" stroke-linejoin="round" stroke-miterlimit="10" stroke-width="2" d="
		M51.8,48.3l0.5,2.1c0.1,0.4-0.2,0.8-0.7,0.8h-3c-0.4,0-0.8-0.4-0.7-0.8l0.5-2.2c0-0.2,0-0.5-0.2-0.6c-0.7-0.6-1.1-1.5-0.9-2.5
		c0.2-1.2,1.2-2.2,2.4-2.3c1.7-0.2,3.2,1.1,3.2,2.8c0,0.8-0.4,1.6-0.9,2.1C51.8,47.9,51.7,48.1,51.8,48.3z"/></svg>