<svg id="Layer_1" data-name="Layer 1" xmlns="http://www.w3.org/2000/svg" viewBox="0 0 1200 77"><defs><style>.cls-1{fill:#fff;}</style></defs><path class="cls-1" d="M304.4,10.91h15L334.1,49.57,349,10.91H363.8V66.1h-9.35V20.26h-.16L337.53,66.1h-6.86L313.91,20.26h-.15V66.1H304.4Z"/><path class="cls-1" d="M377.68,10.91h9.82V66.1h-9.82Z"/><path class="cls-1" d="M439,23.85a16.42,16.42,0,0,0-5.89-4.37,15.78,15.78,0,0,0-5.73-1.09,19.14,19.14,0,0,0-7.75,1.52,17.77,17.77,0,0,0-6,4.21,19,19,0,0,0-3.85,6.27,21.58,21.58,0,0,0-1.37,7.72,23.78,23.78,0,0,0,1.37,8.19,19.16,19.16,0,0,0,3.85,6.47,17.81,17.81,0,0,0,6,4.28,18.66,18.66,0,0,0,7.75,1.56A14.28,14.28,0,0,0,433.92,57a17.79,17.79,0,0,0,5.89-5.11l8.11,5.77a22.12,22.12,0,0,1-9.13,7.48,28.36,28.36,0,0,1-11.45,2.34,32.21,32.21,0,0,1-11.74-2.07,26.6,26.6,0,0,1-9.19-5.84,26.87,26.87,0,0,1-6.05-9.08,30.76,30.76,0,0,1-2.18-11.77,32.08,32.08,0,0,1,2.18-12,27.07,27.07,0,0,1,6.05-9.24,26.54,26.54,0,0,1,9.19-5.88A32.21,32.21,0,0,1,427.34,9.5a27,27,0,0,1,10.4,2,24.33,24.33,0,0,1,8.93,6.74Z"/><path class="cls-1" d="M456.1,10.91h19.18a38.45,38.45,0,0,1,7.67.74,19.67,19.67,0,0,1,6.59,2.53,13.33,13.33,0,0,1,4.6,4.83,15.61,15.61,0,0,1,1.72,7.72,15.38,15.38,0,0,1-3.32,10.06,14.2,14.2,0,0,1-9.47,4.91l14.66,24.4H485.88L473.09,42.71h-7.17V66.1H456.1Zm17.46,23.38c1.41,0,2.81-.06,4.21-.19a12.78,12.78,0,0,0,3.86-.94,6.6,6.6,0,0,0,2.85-2.26,7.24,7.24,0,0,0,1.09-4.25,6.71,6.71,0,0,0-1-3.89,6.32,6.32,0,0,0-2.65-2.23,12.13,12.13,0,0,0-3.62-1,32.18,32.18,0,0,0-3.86-.23h-8.5v15Z"/><path class="cls-1" d="M503.81,38.74a31.88,31.88,0,0,1,2.18-12,27,27,0,0,1,6-9.24,26.58,26.58,0,0,1,9.2-5.88A32.19,32.19,0,0,1,533,9.5a33,33,0,0,1,11.85,1.91,25.91,25.91,0,0,1,9.28,5.81,26.87,26.87,0,0,1,6.08,9.2,31.74,31.74,0,0,1,2.18,12,30.78,30.78,0,0,1-2.18,11.78,27.11,27.11,0,0,1-6.08,9.12,27.87,27.87,0,0,1-9.28,6A32.79,32.79,0,0,1,533,67.5a32.19,32.19,0,0,1-11.73-2.07A26.26,26.26,0,0,1,506,50.51,30.58,30.58,0,0,1,503.81,38.74Zm10.29-.63a23.78,23.78,0,0,0,1.36,8.19,19.34,19.34,0,0,0,3.86,6.47,17.77,17.77,0,0,0,6,4.28A18.71,18.71,0,0,0,533,58.61a18.92,18.92,0,0,0,7.79-1.56,17.77,17.77,0,0,0,6-4.28,19.34,19.34,0,0,0,3.86-6.47,24,24,0,0,0,1.36-8.19,21.8,21.8,0,0,0-1.36-7.72,19.24,19.24,0,0,0-3.86-6.27,17.73,17.73,0,0,0-6-4.21A19.4,19.4,0,0,0,533,18.39a19.19,19.19,0,0,0-7.76,1.52,17.72,17.72,0,0,0-6,4.21,19.24,19.24,0,0,0-3.86,6.27A21.58,21.58,0,0,0,514.1,38.11Z"/><path class="cls-1" d="M573.26,10.91h18.56a37.09,37.09,0,0,1,7.67.78A18.93,18.93,0,0,1,606,14.3a13.46,13.46,0,0,1,4.49,4.91,16,16,0,0,1,1.67,7.68,17.22,17.22,0,0,1-1.79,8.42,12.87,12.87,0,0,1-4.84,4.95,20.16,20.16,0,0,1-7,2.37,54,54,0,0,1-8.38.63h-7V66.1h-9.82ZM589,34.84c1.4,0,2.86-.05,4.36-.16a13.37,13.37,0,0,0,4.18-.93,7.36,7.36,0,0,0,3.11-2.34A7,7,0,0,0,601.87,27,6.86,6.86,0,0,0,600.78,23,7.28,7.28,0,0,0,598,20.61a11.76,11.76,0,0,0-3.82-1.05,35.62,35.62,0,0,0-4-.23h-7V34.84Z"/><path class="cls-1" d="M622.45,10.91h9.82v22h25.81v-22h9.82V66.1h-9.82V41.78H632.27V66.1h-9.82Z"/><path class="cls-1" d="M678.81,38.74a32.08,32.08,0,0,1,2.18-12,27.19,27.19,0,0,1,6-9.24,26.68,26.68,0,0,1,9.2-5.88A32.21,32.21,0,0,1,708,9.5a32.89,32.89,0,0,1,11.84,1.91,25.91,25.91,0,0,1,9.28,5.81,26.73,26.73,0,0,1,6.08,9.2,31.55,31.55,0,0,1,2.18,12,30.59,30.59,0,0,1-2.18,11.78,27,27,0,0,1-6.08,9.12,27.87,27.87,0,0,1-9.28,6A32.7,32.7,0,0,1,708,67.5a32.21,32.21,0,0,1-11.74-2.07A26.26,26.26,0,0,1,681,50.51,30.76,30.76,0,0,1,678.81,38.74Zm10.29-.63a23.78,23.78,0,0,0,1.37,8.19,19.16,19.16,0,0,0,3.85,6.47,17.81,17.81,0,0,0,6,4.28A18.66,18.66,0,0,0,708,58.61a19,19,0,0,0,7.8-1.56,17.64,17.64,0,0,0,6-4.28,19.34,19.34,0,0,0,3.86-6.47,23.78,23.78,0,0,0,1.36-8.19,21.58,21.58,0,0,0-1.36-7.72,19.24,19.24,0,0,0-3.86-6.27,17.59,17.59,0,0,0-6-4.21,19.49,19.49,0,0,0-7.8-1.52,19.14,19.14,0,0,0-7.75,1.52,17.77,17.77,0,0,0-6,4.21,19,19,0,0,0-3.85,6.27A21.58,21.58,0,0,0,689.1,38.11Z"/><path class="cls-1" d="M748.27,10.91h13l26.74,41h.16v-41H798V66.1H785.53L758.24,23.77h-.15V66.1h-9.82Z"/><path class="cls-1" d="M811.88,10.91h36.56v8.88H821.7V33.36H847v8.88H821.7v15h28.14V66.1h-38Z"/><path class="cls-1" d="M888.11,22.76a9.05,9.05,0,0,0-4.17-3.32,14.57,14.57,0,0,0-5.49-1.05,14,14,0,0,0-3.32.39A9.09,9.09,0,0,0,872.25,20a6.48,6.48,0,0,0-2.07,2.22,6.41,6.41,0,0,0-.78,3.23,5.07,5.07,0,0,0,2,4.29,18.78,18.78,0,0,0,4.84,2.57q2.88,1.09,6.31,2.11a25.75,25.75,0,0,1,6.32,2.8A15.77,15.77,0,0,1,893.65,42a14.13,14.13,0,0,1,2,7.87A17.36,17.36,0,0,1,894,57.64a15.75,15.75,0,0,1-4.4,5.49,19,19,0,0,1-6.44,3.28,26.76,26.76,0,0,1-7.71,1.09,29,29,0,0,1-9.9-1.71A19.19,19.19,0,0,1,857.32,60l7.41-7.18a12.28,12.28,0,0,0,4.71,4.25,13.19,13.19,0,0,0,6.2,1.52,13,13,0,0,0,3.43-.46,10.78,10.78,0,0,0,3.12-1.41,7.31,7.31,0,0,0,2.26-2.37,6.42,6.42,0,0,0,.86-3.32,5.79,5.79,0,0,0-1.95-4.68,17.18,17.18,0,0,0-4.83-2.76c-1.93-.76-4-1.47-6.32-2.15a26.18,26.18,0,0,1-6.31-2.76A15.32,15.32,0,0,1,861.06,34a13.94,13.94,0,0,1-1.95-7.84,14.87,14.87,0,0,1,1.76-7.4,15.92,15.92,0,0,1,4.6-5.18A19.77,19.77,0,0,1,872,10.52a27.72,27.72,0,0,1,7.48-1,27.12,27.12,0,0,1,8.46,1.33,19.58,19.58,0,0,1,7.36,4.36Z"/></svg>