<svg xmlns="http://www.w3.org/2000/svg" width="63.104" height="61" viewBox="0 0 63.104 61">
  <g id="branding" transform="translate(-1184 -442)">
    <path id="Path_7" data-name="Path 7" d="M882.247,143.516l-11.8-11.906a2.106,2.106,0,0,0-2.965,0l-29.869,29.764a2.1,2.1,0,0,0,0,2.966l11.905,11.9a2.116,2.116,0,0,0,.686.454,2.11,2.11,0,0,0,2.28-.454l5.953-5.953,17.858-17.858,5.953-5.953a2.1,2.1,0,0,0,0-2.965Zm-7.446,4.459-1.494-1.494a2.1,2.1,0,1,0-2.966,2.987l1.494,1.494-2.987,2.966-4.459-4.46a2.1,2.1,0,0,0-2.966,2.966l4.459,4.459L862.9,159.88l-1.472-1.493a2.112,2.112,0,1,0-2.987,2.987l1.493,1.472-2.966,2.987-4.48-4.459a2.1,2.1,0,0,0-2.966,2.966l4.459,4.459-2.965,2.987-8.94-8.94,26.777-26.777,8.94,8.94Z" transform="translate(347 311)" fill="#ff3343"/>
    <path id="Path_8" data-name="Path 8" d="M860.138,192H898a2.1,2.1,0,0,0,2.1-2.1V152.034a2.1,2.1,0,0,0-2.1-2.1H885.379a2.1,2.1,0,0,0-2.1,2.1v23.138H860.138a2.1,2.1,0,0,0-2.1,2.1V189.9a2.1,2.1,0,0,0,2.1,2.1Zm2.1-12.621h4.207v2.1a2.1,2.1,0,0,0,4.207,0v-2.1h4.207v2.1a2.1,2.1,0,0,0,4.207,0v-2.1h4.207v2.1a2.1,2.1,0,0,0,4.207,0v-2.1h2.1a2.1,2.1,0,1,0,0-4.207h-2.1v-4.206h2.1a2.1,2.1,0,1,0,0-4.207h-2.1v-4.207h2.1a2.1,2.1,0,1,0,0-4.207h-2.1v-4.207H895.9v33.655H862.241Z" transform="translate(347 311)" fill="#ff3343"/>
  </g>
</svg>
