<svg xmlns="http://www.w3.org/2000/svg" width="140" height="48.193" viewBox="0 0 140 48.193">
  <g id="logo" transform="translate(0 -0.904)">
    <path id="Path_9" data-name="Path 9" d="M0,16.965v8.922A23.006,23.006,0,0,1,8.848,27.65a23.087,23.087,0,0,1,7.5,5.032,23.2,23.2,0,0,1,5.008,7.531A23.278,23.278,0,0,1,23.11,49.1h8.878a32.23,32.23,0,0,0-9.378-22.709A31.957,31.957,0,0,0,0,16.965Z" fill="#ff3343"/>
    <path id="Path_10" data-name="Path 10" d="M44.4.9H30.329a57.217,57.217,0,0,1,17.66,17.732V4.507A3.6,3.6,0,0,0,44.4.9Z" fill="#ff3343"/>
    <path id="Path_11" data-name="Path 11" d="M8.84.9H0V8.937A39.947,39.947,0,0,1,28.265,20.711,40.29,40.29,0,0,1,39.991,49.1h8V40.219a49.2,49.2,0,0,0-13.5-25.753A48.861,48.861,0,0,0,8.84.9Z" fill="#ff3343"/>
    <path id="Path_12" data-name="Path 12" d="M69.75,6.208H64.115V34.731H69.75Z" fill="#ff3343"/>
    <path id="Path_13" data-name="Path 13" d="M90.468,18.566a9.57,9.57,0,0,0-3.23-1.944,11.915,11.915,0,0,0-7.927,0,9.564,9.564,0,0,0-3.232,1.944A9.13,9.13,0,0,0,73.92,21.6a10.335,10.335,0,0,0,0,7.923,9.092,9.092,0,0,0,2.16,3.044,9.5,9.5,0,0,0,3.229,1.943,11.9,11.9,0,0,0,7.927,0,9.509,9.509,0,0,0,3.23-1.943,9.111,9.111,0,0,0,2.16-3.044,10.337,10.337,0,0,0,0-7.923A9.143,9.143,0,0,0,90.468,18.566ZM86.6,28.923a4.953,4.953,0,0,1-6.65,0,5.357,5.357,0,0,1,0-6.722,4.953,4.953,0,0,1,6.65,0,5.357,5.357,0,0,1,0,6.722Z" fill="#ff3343"/>
    <path id="Path_14" data-name="Path 14" d="M110.7,18.81h-.071a5.749,5.749,0,0,0-.9-1,6.521,6.521,0,0,0-1.352-.926,8.483,8.483,0,0,0-3.983-.942,7.371,7.371,0,0,0-3.493.812,8.285,8.285,0,0,0-2.612,2.132,9.693,9.693,0,0,0-1.653,3.055,11.092,11.092,0,0,0-.582,3.551,10.927,10.927,0,0,0,.639,3.8,8.73,8.73,0,0,0,1.813,3,8.2,8.2,0,0,0,2.84,1.959,9.368,9.368,0,0,0,3.681.7,7.728,7.728,0,0,0,2.723-.547,5.3,5.3,0,0,0,2.423-1.868h.076v1.775a4.453,4.453,0,0,1-1.221,3.225,5.088,5.088,0,0,1-3.814,1.268,7.738,7.738,0,0,1-3.173-.642,11.764,11.764,0,0,1-2.762-1.735l-3.118,4.673a10.854,10.854,0,0,0,4.358,2.132,21.31,21.31,0,0,0,4.809.547q5.334,0,7.944-2.7t2.612-7.9V16.4H110.7Zm-.338,8.356A4.435,4.435,0,0,1,109.4,28.6a4.882,4.882,0,0,1-1.446,1,4.356,4.356,0,0,1-3.55,0,4.965,4.965,0,0,1-1.428-1,4.463,4.463,0,0,1,0-6.3,4.989,4.989,0,0,1,1.428-1,4.371,4.371,0,0,1,3.55,0,4.905,4.905,0,0,1,1.446,1,4.491,4.491,0,0,1,.959,4.866Z" fill="#ff3343"/>
    <path id="Path_15" data-name="Path 15" d="M137.051,18.566a9.57,9.57,0,0,0-3.23-1.944,11.915,11.915,0,0,0-7.927,0,9.571,9.571,0,0,0-3.232,1.944A9.132,9.132,0,0,0,120.5,21.6a10.327,10.327,0,0,0,0,7.923,9.087,9.087,0,0,0,2.159,3.044,9.5,9.5,0,0,0,3.232,1.943,11.9,11.9,0,0,0,7.927,0,9.5,9.5,0,0,0,3.23-1.943,9.09,9.09,0,0,0,2.16-3.044,10.339,10.339,0,0,0,0-7.923A9.12,9.12,0,0,0,137.051,18.566Zm-3.869,10.356a4.952,4.952,0,0,1-6.65,0,5.355,5.355,0,0,1,0-6.722,4.952,4.952,0,0,1,6.65,0,5.358,5.358,0,0,1,0,6.722Z" fill="#ff3343"/>
  </g>
</svg>
