<svg xmlns="http://www.w3.org/2000/svg" width="49" height="61" viewBox="0 0 49 61">
  <path id="product" d="M483.562,167.6h-12.25a3.05,3.05,0,1,0,0,6.1h12.25a3.05,3.05,0,1,0,0-6.1Zm12.25-30.5H492.2a9.183,9.183,0,0,0-8.637-6.1h-6.124a9.183,9.183,0,0,0-8.637,6.1h-3.613A9.169,9.169,0,0,0,456,146.25v36.6a9.169,9.169,0,0,0,9.188,9.15h30.624A9.169,9.169,0,0,0,505,182.85v-36.6a9.169,9.169,0,0,0-9.188-9.15Zm-21.437,3.05a3.056,3.056,0,0,1,3.063-3.05h6.124a3.056,3.056,0,0,1,3.063,3.05v3.05h-12.25Zm24.5,42.7a3.056,3.056,0,0,1-3.063,3.05H465.188a3.056,3.056,0,0,1-3.063-3.05v-36.6a3.056,3.056,0,0,1,3.063-3.05h3.062v3.05a3.056,3.056,0,0,0,3.062,3.05h18.376a3.056,3.056,0,0,0,3.062-3.05V143.2h3.062a3.056,3.056,0,0,1,3.063,3.05Zm-9.187-27.45H471.312a3.05,3.05,0,1,0,0,6.1h18.376a3.05,3.05,0,1,0,0-6.1Z" transform="translate(-456 -131)" fill="#fff"/>
</svg>
