<svg xmlns="http://www.w3.org/2000/svg" width="22" height="18" viewBox="0 0 22 18">
  <path id="twitter" d="M508,343.157a9.329,9.329,0,0,1-2.6.707,4.562,4.562,0,0,0,1.991-2.51,9,9,0,0,1-2.871,1.106,4.5,4.5,0,0,0-7.43,1.217,4.554,4.554,0,0,0-.27,2.918,12.787,12.787,0,0,1-9.3-4.743,4.613,4.613,0,0,0-.6,2.288,4.549,4.549,0,0,0,.53,2.138,4.5,4.5,0,0,0,1.472,1.632,4.44,4.44,0,0,1-2.046-.563v.055a4.527,4.527,0,0,0,3.63,4.422,4.316,4.316,0,0,1-1.21.188,5.344,5.344,0,0,1-.847-.077,4.526,4.526,0,0,0,4.213,3.14,9.01,9.01,0,0,1-5.566,1.945,8.6,8.6,0,0,1-1.1-.066,12.836,12.836,0,0,0,16.055-1.7,12.849,12.849,0,0,0,3.745-9.173V345.5a9.307,9.307,0,0,0,2.2-2.343Z" transform="translate(-486 -341)" fill="#fff"/>
</svg>
