<svg xmlns="http://www.w3.org/2000/svg" width="65" height="70.967" viewBox="0 0 65 70.967">
  <g id="ui" transform="translate(-420 -428.974)">
    <path id="Path_4" data-name="Path 4" d="M121.13,160.351a2.863,2.863,0,0,0-.355.471,1.638,1.638,0,0,0-.266.5,1.76,1.76,0,0,0-.177.56,2.726,2.726,0,0,0,.177,1.678,2.653,2.653,0,0,0,1.6,1.59,2.483,2.483,0,0,0,1.122.236,2.975,2.975,0,0,0,1.123-.207,4.294,4.294,0,0,0,.975-.647,2.934,2.934,0,0,0,.857-2.091,2.461,2.461,0,0,0-.237-1.119,3.361,3.361,0,0,0-.62-.971,3.059,3.059,0,0,0-4.195,0ZM108.957,172.6a1.655,1.655,0,0,0-.266.5,1.744,1.744,0,0,0-.236.559,2.506,2.506,0,0,0,0,1.149l.177.53.266.53.354.441a3.1,3.1,0,0,0,2.157.854,2.955,2.955,0,0,0,2.1-.854,3.361,3.361,0,0,0,.62-.971,2.942,2.942,0,0,0-1.332-3.712,2.977,2.977,0,0,0-1.386-.352,3.112,3.112,0,0,0-2.1.854Zm12.173-.471a3.366,3.366,0,0,0-.857,2.68l.177.53a2.25,2.25,0,0,0,.266.53,4.554,4.554,0,0,0,.354.441,2.947,2.947,0,0,0,.975.619,2.79,2.79,0,0,0,2.246,0,3.377,3.377,0,0,0,.975-.619,2.943,2.943,0,0,0,.916-2.09,2.459,2.459,0,0,0-.237-1.119,2.655,2.655,0,0,0-1.6-1.59,2.788,2.788,0,0,0-2.245,0A2.95,2.95,0,0,0,121.13,172.128Zm-12.439-8.568a2.953,2.953,0,0,0,.62.972,3.112,3.112,0,0,0,2.1.854,2.957,2.957,0,0,0,2.444-1.312,2.938,2.938,0,0,0,.274-2.752,3.361,3.361,0,0,0-.62-.971,2.955,2.955,0,0,0-2.1-.854,3.112,3.112,0,0,0-2.1.854,2.936,2.936,0,0,0-.62,3.209Zm12.439-14.987a3.4,3.4,0,0,0-.621.971,2.85,2.85,0,0,0,1.6,3.828,2.777,2.777,0,0,0,2.245,0,3.4,3.4,0,0,0,.975-.618,2.934,2.934,0,0,0,.857-2.091,2.461,2.461,0,0,0-.237-1.119,3.375,3.375,0,0,0-.62-.971,3.059,3.059,0,0,0-4.195,0Zm-36.312,2.09v23.556a2.949,2.949,0,0,0,2.954,2.944H99.591a2.948,2.948,0,0,0,2.954-2.944V150.663a2.948,2.948,0,0,0-2.954-2.944H87.773a2.949,2.949,0,0,0-2.954,2.944Zm11.818,2.945v17.666H90.727V153.608ZM73,144.774v35.334a8.848,8.848,0,0,0,8.864,8.833h47.272A8.848,8.848,0,0,0,138,180.108V144.774a8.848,8.848,0,0,0-8.864-8.833H81.864A8.848,8.848,0,0,0,73,144.774Zm56.136-2.944a2.948,2.948,0,0,1,2.955,2.944v35.334a2.948,2.948,0,0,1-2.955,2.944H81.864a2.949,2.949,0,0,1-2.954-2.944V144.774a2.949,2.949,0,0,1,2.954-2.944Zm-20.179,7.214a1.649,1.649,0,0,0-.266.5,1.76,1.76,0,0,0-.177.56,2.5,2.5,0,0,0,0,1.148l.177.53.266.53.354.442a3.112,3.112,0,0,0,2.1.854,2.96,2.96,0,0,0,2.444-1.311,2.94,2.94,0,0,0,.274-2.753,3.375,3.375,0,0,0-.62-.971,2.967,2.967,0,0,0-2.1-.854,3.112,3.112,0,0,0-2.1.854Z" transform="translate(347 311)" fill="#ff3343"/>
    <path id="Path_5" data-name="Path 5" d="M85.092,119a1.7,1.7,0,0,0-.489,1.21l.138,10.205a1.72,1.72,0,0,0,1.732,1.686l6.811-.093,26.306-.357a1.691,1.691,0,0,0,.65-.141,1.715,1.715,0,0,0,.546-.38l5.033-5.172a1.7,1.7,0,0,0-.032-2.406l-5.172-5.033a1.7,1.7,0,0,0-1.271-.549l-26.232.428-6.764.02a2,2,0,0,0-.66.141,1.7,1.7,0,0,0-.285.293,1.192,1.192,0,0,0-.166.17Zm33.649,2.445,3.452,3.359-3.359,3.452-23.9.324-.092-6.811Zm-27.292.37.092,6.811-3.406.034-.092-6.787Z" transform="translate(347 311)" fill="#ff3343"/>
  </g>
</svg>
