<svg xmlns="http://www.w3.org/2000/svg" width="26" height="17.999" viewBox="0 0 26 17.999">
  <path id="youtube" d="M585.994,347.344a9.768,9.768,0,0,0-1.075-4.806,3.464,3.464,0,0,0-2.031-1.164,137.529,137.529,0,0,0-19.736-.011,3.4,3.4,0,0,0-1.724.861c-1.063.966-1.181,2.618-1.3,4.014a55.149,55.149,0,0,0,0,7.541,10.906,10.906,0,0,0,.354,2.327,3.627,3.627,0,0,0,.838,1.582,3.4,3.4,0,0,0,1.76.908,54.1,54.1,0,0,0,7.677.384c4.134.058,7.76,0,12.047-.326a3.417,3.417,0,0,0,1.807-.907,2.891,2.891,0,0,0,.721-1.164,12.172,12.172,0,0,0,.614-3.956C585.994,351.975,585.994,348.042,585.994,347.344Zm-15.661,5.981v-7.2l6.992,3.619C575.364,350.811,572.778,352.022,570.333,353.325Z" transform="translate(-560 -341)" fill="#fff"/>
</svg>
